<svg width="172" height="57" viewBox="0 0 172 57" fill="none" xmlns="http://www.w3.org/2000/svg">
<rect x="0.0253906" width="171" height="57" rx="7" fill="#0C0D10"/>
<path d="M116.2 27.3613V30.626H114.153V32.7669H116.2V40.0415C116.2 42.5255 117.324 43.5191 120.151 43.5191C120.647 43.5191 121.12 43.46 121.534 43.389V41.2717C121.18 41.3072 120.955 41.3309 120.565 41.3309C119.299 41.3309 118.743 40.7394 118.743 39.391V32.7669H121.534V30.626H118.743V27.3613H116.2Z" fill="white"/>
<path d="M128.736 43.6966C132.498 43.6966 134.804 41.1771 134.804 37.0016C134.804 32.8497 132.486 30.3184 128.736 30.3184C124.975 30.3184 122.656 32.8497 122.656 37.0016C122.656 41.1771 124.963 43.6966 128.736 43.6966ZM128.736 41.4373C126.524 41.4373 125.282 39.8168 125.282 37.0016C125.282 34.21 126.524 32.5777 128.736 32.5777C130.936 32.5777 132.19 34.21 132.19 37.0016C132.19 39.805 130.936 41.4373 128.736 41.4373Z" fill="white"/>
<path d="M136.778 43.4482H139.321V35.8424C139.321 34.0326 140.681 32.8143 142.609 32.8143C143.059 32.8143 143.816 32.8971 144.029 32.968V30.4604C143.757 30.3894 143.272 30.3539 142.893 30.3539C141.214 30.3539 139.782 31.2765 139.416 32.5422H139.226V30.5668H136.778V43.4482Z" fill="white"/>
<path d="M150.343 32.4831C152.224 32.4831 153.454 33.796 153.513 35.8187H147.008C147.15 33.8079 148.463 32.4831 150.343 32.4831ZM153.502 39.9706C153.028 40.976 151.976 41.5319 150.438 41.5319C148.403 41.5319 147.09 40.1007 147.008 37.8414V37.6995H156.104V36.8123C156.104 32.7669 153.939 30.3184 150.355 30.3184C146.724 30.3184 144.417 32.9325 144.417 37.0489C144.417 41.1653 146.676 43.6966 150.367 43.6966C153.312 43.6966 155.37 42.2771 155.95 39.9706H153.502Z" fill="white"/>
<path d="M99.5222 38.6913C99.7183 41.8544 102.354 43.8773 106.277 43.8773C110.47 43.8773 113.094 41.7563 113.094 38.3725C113.094 35.7121 111.598 34.2409 107.969 33.395L106.02 32.9168C103.715 32.3774 102.783 31.654 102.783 30.3913C102.783 28.7975 104.23 27.7554 106.4 27.7554C108.46 27.7554 109.882 28.7729 110.139 30.4035H112.812C112.653 27.4243 110.029 25.3279 106.437 25.3279C102.575 25.3279 100 27.4243 100 30.5752C100 33.1743 101.459 34.719 104.659 35.4669L106.939 36.0186C109.281 36.5703 110.311 37.3795 110.311 38.7281C110.311 40.2974 108.693 41.4375 106.486 41.4375C104.12 41.4375 102.477 40.3709 102.244 38.6913H99.5222Z" fill="white"/>
<path d="M73.1777 30.3539C71.4271 30.3539 69.913 31.2292 69.1323 32.696H68.9431V30.5668H66.4946V47.7301H69.0377V41.4965H69.2388C69.913 42.8567 71.3679 43.6611 73.2014 43.6611C76.4543 43.6611 78.5243 41.0943 78.5243 37.0016C78.5243 32.9089 76.4543 30.3539 73.1777 30.3539ZM72.4562 41.3782C70.327 41.3782 68.9904 39.6985 68.9904 37.0134C68.9904 34.3165 70.327 32.6368 72.468 32.6368C74.6208 32.6368 75.9101 34.281 75.9101 37.0016C75.9101 39.734 74.6208 41.3782 72.4562 41.3782Z" fill="white"/>
<path d="M87.4232 30.3539C85.6725 30.3539 84.1585 31.2292 83.3778 32.696H83.1885V30.5668H80.74V47.7301H83.2831V41.4965H83.4842C84.1585 42.8567 85.6134 43.6611 87.4468 43.6611C90.6997 43.6611 92.7697 41.0943 92.7697 37.0016C92.7697 32.9089 90.6997 30.3539 87.4232 30.3539ZM86.7016 41.3782C84.5725 41.3782 83.2358 39.6985 83.2358 37.0134C83.2358 34.3165 84.5725 32.6368 86.7134 32.6368C88.8663 32.6368 90.1556 34.281 90.1556 37.0016C90.1556 39.734 88.8663 41.3782 86.7016 41.3782Z" fill="white"/>
<path d="M61.9317 43.4482H64.8496L58.4621 25.757H55.5075L49.12 43.4482H51.9398L53.5704 38.7526H60.3134L61.9317 43.4482ZM56.8438 28.9691H57.0522L59.6146 36.4477H54.2692L56.8438 28.9691Z" fill="white"/>
<path d="M50.8282 12.4131V20.9474H53.9096C56.4528 20.9474 57.9254 19.3801 57.9254 16.6536C57.9254 13.9685 56.4409 12.4131 53.9096 12.4131H50.8282ZM52.1531 13.6196H53.7617C55.5301 13.6196 56.577 14.7433 56.577 16.6714C56.577 18.629 55.5479 19.7409 53.7617 19.7409H52.1531V13.6196Z" fill="white"/>
<path d="M62.4357 21.0716C64.3164 21.0716 65.4697 19.8119 65.4697 17.7241C65.4697 15.6482 64.3105 14.3825 62.4357 14.3825C60.5549 14.3825 59.3957 15.6482 59.3957 17.7241C59.3957 19.8119 60.549 21.0716 62.4357 21.0716ZM62.4357 19.942C61.3297 19.942 60.7087 19.1317 60.7087 17.7241C60.7087 16.3284 61.3297 15.5122 62.4357 15.5122C63.5357 15.5122 64.1626 16.3284 64.1626 17.7241C64.1626 19.1258 63.5357 19.942 62.4357 19.942Z" fill="white"/>
<path d="M75.291 14.5067H74.0194L72.872 19.4215H72.7715L71.4467 14.5067H70.2284L68.9035 19.4215H68.8089L67.6556 14.5067H66.3663L68.1406 20.9474H69.4477L70.7725 16.2041H70.873L72.2037 20.9474H73.5226L75.291 14.5067Z" fill="white"/>
<path d="M76.7554 20.9474H78.027V17.18C78.027 16.1746 78.6243 15.5477 79.5647 15.5477C80.5051 15.5477 80.9545 16.0622 80.9545 17.0972V20.9474H82.2261V16.7778C82.2261 15.246 81.4336 14.3825 79.9964 14.3825C79.0265 14.3825 78.3877 14.8143 78.0743 15.5299H77.9796V14.5067H76.7554V20.9474Z" fill="white"/>
<path d="M84.2287 20.9474H85.5003V11.9932H84.2287V20.9474Z" fill="white"/>
<path d="M90.2826 21.0716C92.1633 21.0716 93.3166 19.8119 93.3166 17.7241C93.3166 15.6482 92.1574 14.3825 90.2826 14.3825C88.4018 14.3825 87.2426 15.6482 87.2426 17.7241C87.2426 19.8119 88.3959 21.0716 90.2826 21.0716ZM90.2826 19.942C89.1766 19.942 88.5556 19.1317 88.5556 17.7241C88.5556 16.3284 89.1766 15.5122 90.2826 15.5122C91.3826 15.5122 92.0096 16.3284 92.0096 17.7241C92.0096 19.1258 91.3826 19.942 90.2826 19.942Z" fill="white"/>
<path d="M97.1053 19.9834C96.4134 19.9834 95.9106 19.6463 95.9106 19.0667C95.9106 18.4989 96.3128 18.1973 97.2 18.1381L98.7732 18.0376V18.5758C98.7732 19.3742 98.0634 19.9834 97.1053 19.9834ZM96.78 21.0539C97.6258 21.0539 98.3296 20.6872 98.714 20.0425H98.8146V20.9474H100.039V16.5472C100.039 15.1869 99.128 14.3825 97.5134 14.3825C96.0526 14.3825 95.0117 15.0923 94.8815 16.1982H96.1117C96.2537 15.7428 96.7446 15.4826 97.4543 15.4826C98.3237 15.4826 98.7732 15.867 98.7732 16.5472V17.1031L97.0284 17.2037C95.4966 17.2983 94.6331 17.9666 94.6331 19.1258C94.6331 20.3028 95.538 21.0539 96.78 21.0539Z" fill="white"/>
<path d="M104.354 21.0539C105.241 21.0539 105.992 20.634 106.377 19.9302H106.477V20.9474H107.695V11.9932H106.424V15.5299H106.329C105.98 14.8202 105.235 14.4003 104.354 14.4003C102.727 14.4003 101.681 15.6896 101.681 17.7241C101.681 19.7646 102.716 21.0539 104.354 21.0539ZM104.715 15.5417C105.779 15.5417 106.448 16.3875 106.448 17.73C106.448 19.0785 105.785 19.9124 104.715 19.9124C103.638 19.9124 102.994 19.0903 102.994 17.7241C102.994 16.3698 103.644 15.5417 104.715 15.5417Z" fill="white"/>
<path d="M115.941 21.0716C117.822 21.0716 118.975 19.8119 118.975 17.7241C118.975 15.6482 117.816 14.3825 115.941 14.3825C114.06 14.3825 112.901 15.6482 112.901 17.7241C112.901 19.8119 114.055 21.0716 115.941 21.0716ZM115.941 19.942C114.835 19.942 114.214 19.1317 114.214 17.7241C114.214 16.3284 114.835 15.5122 115.941 15.5122C117.041 15.5122 117.668 16.3284 117.668 17.7241C117.668 19.1258 117.041 19.942 115.941 19.942Z" fill="white"/>
<path d="M120.658 20.9474H121.93V17.18C121.93 16.1746 122.527 15.5477 123.468 15.5477C124.408 15.5477 124.858 16.0622 124.858 17.0972V20.9474H126.129V16.7778C126.129 15.246 125.337 14.3825 123.9 14.3825C122.93 14.3825 122.291 14.8143 121.977 15.5299H121.883V14.5067H120.658V20.9474Z" fill="white"/>
<path d="M131.986 12.904V14.5363H130.962V15.6068H131.986V19.2441C131.986 20.4861 132.547 20.9829 133.961 20.9829C134.209 20.9829 134.446 20.9533 134.653 20.9179V19.8592C134.475 19.8769 134.363 19.8888 134.168 19.8888C133.535 19.8888 133.257 19.593 133.257 18.9188V15.6068H134.653V14.5363H133.257V12.904H131.986Z" fill="white"/>
<path d="M136.36 20.9474H137.631V17.1859C137.631 16.2101 138.211 15.5536 139.252 15.5536C140.151 15.5536 140.63 16.074 140.63 17.1031V20.9474H141.901V16.7897C141.901 15.2579 141.056 14.3885 139.684 14.3885C138.714 14.3885 138.034 14.8202 137.72 15.5417H137.62V11.9932H136.36V20.9474Z" fill="white"/>
<path d="M146.489 15.4649C147.429 15.4649 148.044 16.1213 148.074 17.1327H144.821C144.892 16.1273 145.548 15.4649 146.489 15.4649ZM148.068 19.2086C147.831 19.7113 147.305 19.9893 146.536 19.9893C145.519 19.9893 144.862 19.2737 144.821 18.144V18.0731H149.369V17.6295C149.369 15.6068 148.287 14.3825 146.495 14.3825C144.679 14.3825 143.526 15.6896 143.526 17.7478C143.526 19.806 144.655 21.0716 146.5 21.0716C147.973 21.0716 149.002 20.3619 149.292 19.2086H148.068Z" fill="white"/>
<path d="M35.3212 28.9288C35.3521 26.5333 36.6385 24.2667 38.6793 23.0121C37.3919 21.1734 35.2354 20.0076 32.9919 19.9374C30.599 19.6862 28.2792 21.3693 27.0598 21.3693C25.8168 21.3693 23.9394 19.9623 21.9177 20.0039C19.2825 20.0891 16.8258 21.5873 15.5438 23.8911C12.7878 28.6626 14.8435 35.6751 17.4835 39.5321C18.8043 41.4207 20.348 43.5303 22.3678 43.4555C24.3444 43.3735 25.0826 42.1951 27.4685 42.1951C29.8322 42.1951 30.5248 43.4555 32.5857 43.4079C34.7066 43.3735 36.0429 41.5109 37.3174 39.6044C38.2664 38.2587 38.9967 36.7714 39.4811 35.1976C36.9886 34.1434 35.3241 31.635 35.3212 28.9288Z" fill="white"/>
<path d="M31.4286 17.4009C32.585 16.0126 33.1547 14.2283 33.0168 12.4268C31.25 12.6123 29.618 13.4567 28.446 14.7917C27.2999 16.096 26.7034 17.849 26.8162 19.5817C28.5836 19.5999 30.3211 18.7784 31.4286 17.4009Z" fill="white"/>
</svg>
