<svg width="193" height="57" viewBox="0 0 193 57" fill="none" xmlns="http://www.w3.org/2000/svg">
<rect width="192.375" height="57" rx="5" fill="black"/>
<path d="M97.0938 30.9954C93.7422 30.9954 91.0105 33.5448 91.0105 37.056C91.0105 40.5458 93.7422 43.1165 97.0938 43.1165C100.447 43.1165 103.179 40.5458 103.179 37.056C103.177 33.5448 100.445 30.9954 97.0938 30.9954ZM97.0938 40.731C95.257 40.731 93.6738 39.2163 93.6738 37.0574C93.6738 34.8757 95.2584 33.3837 97.0938 33.3837C98.9306 33.3837 100.514 34.8757 100.514 37.0574C100.514 39.2148 98.9306 40.731 97.0938 40.731ZM83.8214 30.9954C80.4698 30.9954 77.738 33.5448 77.738 37.056C77.738 40.5458 80.4698 43.1165 83.8214 43.1165C87.1744 43.1165 89.9061 40.5458 89.9061 37.056C89.9061 33.5448 87.1744 30.9954 83.8214 30.9954ZM83.8214 40.731C81.9845 40.731 80.4014 39.2163 80.4014 37.0574C80.4014 34.8757 81.986 33.3837 83.8214 33.3837C85.6582 33.3837 87.2414 34.8757 87.2414 37.0574C87.2428 39.2148 85.6582 40.731 83.8214 40.731ZM68.0352 32.8565V35.4272H74.1884C74.0045 36.8736 73.5229 37.9295 72.7876 38.6634C71.8927 39.5583 70.4919 40.5458 68.0352 40.5458C64.2476 40.5458 61.2864 37.492 61.2864 33.7044C61.2864 29.9167 64.2476 26.8629 68.0352 26.8629C70.0787 26.8629 71.5706 27.6666 72.6722 28.6998L74.4862 26.8857C72.9472 25.4166 70.9052 24.2922 68.0352 24.2922C62.8468 24.2922 58.4849 28.5159 58.4849 33.7044C58.4849 38.8928 62.8468 43.1165 68.0352 43.1165C70.8353 43.1165 72.9486 42.1974 74.6002 40.476C76.2988 38.7774 76.8275 36.3891 76.8275 34.461C76.8275 33.8654 76.7819 33.3139 76.6892 32.8551H68.0352V32.8565ZM132.599 34.8529C132.095 33.4992 130.556 30.9954 127.411 30.9954C124.289 30.9954 121.694 33.4521 121.694 37.056C121.694 40.4532 124.266 43.1165 127.709 43.1165C130.486 43.1165 132.093 41.4179 132.76 40.4304L130.694 39.0524C130.006 40.0627 129.064 40.7282 127.709 40.7282C126.355 40.7282 125.39 40.1083 124.77 38.8914L132.874 35.5398L132.599 34.8529ZM124.334 36.8736C124.266 34.5309 126.148 33.3381 127.503 33.3381C128.559 33.3381 129.454 33.8668 129.753 34.6235L124.334 36.8736ZM117.746 42.7503H120.408V24.9363H117.746V42.7503ZM113.383 32.3506H113.292C112.695 31.6381 111.546 30.9954 110.101 30.9954C107.07 30.9954 104.293 33.6588 104.293 37.0802C104.293 40.4774 107.07 43.1179 110.101 43.1179C111.548 43.1179 112.695 42.4752 113.292 41.7414H113.383V42.6135C113.383 44.9319 112.143 46.1717 110.147 46.1717C108.517 46.1717 107.506 45.0018 107.093 44.0142L104.775 44.979C105.44 46.5849 107.207 48.56 110.147 48.56C113.269 48.56 115.91 46.7232 115.91 42.2458V31.3645H113.384V32.3506H113.383ZM110.331 40.731C108.494 40.731 106.956 39.192 106.956 37.0802C106.956 34.9441 108.494 33.3837 110.331 33.3837C112.143 33.3837 113.567 34.9441 113.567 37.0802C113.567 39.192 112.143 40.731 110.331 40.731ZM145.074 24.9363H138.702V42.7503H141.36V36.0015H145.072C148.019 36.0015 150.917 33.8682 150.917 30.4696C150.917 27.071 148.02 24.9363 145.074 24.9363ZM145.142 33.522H141.36V27.4158H145.142C147.13 27.4158 148.258 29.0617 148.258 30.4696C148.258 31.849 147.13 33.522 145.142 33.522ZM161.575 30.9641C159.65 30.9641 157.656 31.812 156.831 33.6915L159.191 34.6762C159.695 33.6915 160.636 33.3695 161.621 33.3695C162.996 33.3695 164.394 34.1946 164.417 35.6609V35.8447C163.935 35.5697 162.903 35.1579 161.643 35.1579C159.1 35.1579 156.509 36.5558 156.509 39.1678C156.509 41.5518 158.595 43.0866 160.932 43.0866C162.719 43.0866 163.705 42.2843 164.324 41.3438H164.415V42.7189H166.983V35.8889C166.984 32.7282 164.622 30.9641 161.575 30.9641ZM161.253 40.7268C160.384 40.7268 159.168 40.2907 159.168 39.2134C159.168 37.8383 160.682 37.311 161.988 37.311C163.155 37.311 163.707 37.5633 164.417 37.9067C164.21 39.5583 162.789 40.7268 161.253 40.7268ZM176.334 31.3531L173.286 39.0766H173.195L170.031 31.3531H167.167L171.911 42.1475L169.206 48.1524H171.979L179.291 31.3531H176.334ZM152.385 42.7503H155.043V24.9363H152.385V42.7503Z" fill="white"/>
<path d="M67.5707 14.5963C67.5707 15.7904 67.2173 16.7409 66.5091 17.4506C65.7054 18.2942 64.6566 18.716 63.3684 18.716C62.1344 18.716 61.0841 18.2885 60.222 17.4335C59.3585 16.577 58.9267 15.5168 58.9267 14.2514C58.9267 12.9846 59.3585 11.9244 60.222 11.0694C61.0841 10.213 62.1344 9.7855 63.3684 9.7855C63.9812 9.7855 64.5668 9.9052 65.1226 10.1432C65.6798 10.3826 66.1258 10.7003 66.4592 11.0979L65.7083 11.8503C65.1425 11.1734 64.3631 10.8357 63.367 10.8357C62.4664 10.8357 61.6883 11.1521 61.0314 11.7848C60.3745 12.4175 60.0467 13.2397 60.0467 14.25C60.0467 15.2603 60.3745 16.0826 61.0314 16.7153C61.6883 17.348 62.4664 17.6643 63.367 17.6643C64.3217 17.6643 65.1183 17.3465 65.7553 16.7096C66.1685 16.2949 66.4079 15.7178 66.4721 14.9782H63.367V13.9508H67.5095C67.5522 14.1745 67.5707 14.3897 67.5707 14.5963Z" fill="white"/>
<path d="M74.1401 11.0253H70.247V13.7357H73.7582V14.7631H70.247V17.4735H74.1401V18.5251H69.1484V9.9751H74.1401V11.0253Z" fill="white"/>
<path d="M78.7726 18.5251H77.674V11.0253H75.2857V9.9751H81.1609V11.0253H78.7726V18.5251Z" fill="white"/>
<path d="M85.4117 18.5251V9.9751H86.5103V18.5251H85.4117Z" fill="white"/>
<path d="M91.3826 18.5251H90.284V11.0253H87.8957V9.9751H93.7709V11.0253H91.3826V18.5251Z" fill="white"/>
<path d="M104.893 17.4207C104.052 18.2843 103.007 18.716 101.758 18.716C100.508 18.716 99.4635 18.2843 98.6242 17.4207C97.7834 16.5572 97.3645 15.4998 97.3645 14.2501C97.3645 13.0004 97.7834 11.943 98.6242 11.0795C99.4635 10.2159 100.508 9.78271 101.758 9.78271C103 9.78271 104.043 10.2173 104.887 11.0852C105.731 11.953 106.152 13.0075 106.152 14.2501C106.152 15.4998 105.732 16.5572 104.893 17.4207ZM99.435 16.7039C100.068 17.3452 100.841 17.6644 101.758 17.6644C102.674 17.6644 103.449 17.3438 104.08 16.7039C104.713 16.0627 105.031 15.2447 105.031 14.2501C105.031 13.2554 104.713 12.4375 104.08 11.7962C103.449 11.155 102.674 10.8358 101.758 10.8358C100.841 10.8358 100.068 11.1564 99.435 11.7962C98.8037 12.4375 98.4859 13.2554 98.4859 14.2501C98.4859 15.2447 98.8037 16.0627 99.435 16.7039Z" fill="white"/>
<path d="M107.694 18.5251V9.9751H109.031L113.186 16.6256H113.233L113.186 14.9783V9.9751H114.285V18.5251H113.138L108.79 11.5512H108.743L108.79 13.1985V18.5251H107.694Z" fill="white"/>
<path d="M67.5707 14.5963C67.5707 15.7904 67.2173 16.7409 66.5091 17.4506C65.7054 18.2942 64.6566 18.716 63.3684 18.716C62.1344 18.716 61.0841 18.2885 60.222 17.4335C59.3585 16.577 58.9267 15.5168 58.9267 14.2514C58.9267 12.9846 59.3585 11.9244 60.222 11.0694C61.0841 10.213 62.1344 9.7855 63.3684 9.7855C63.9812 9.7855 64.5668 9.9052 65.1226 10.1432C65.6798 10.3826 66.1258 10.7003 66.4592 11.0979L65.7083 11.8503C65.1425 11.1734 64.3631 10.8357 63.367 10.8357C62.4664 10.8357 61.6883 11.1521 61.0314 11.7848C60.3745 12.4175 60.0467 13.2397 60.0467 14.25C60.0467 15.2603 60.3745 16.0826 61.0314 16.7153C61.6883 17.348 62.4664 17.6643 63.367 17.6643C64.3217 17.6643 65.1183 17.3465 65.7553 16.7096C66.1685 16.2949 66.4079 15.7178 66.4721 14.9782H63.367V13.9508H67.5095C67.5522 14.1745 67.5707 14.3897 67.5707 14.5963Z" stroke="white" stroke-width="0.2" stroke-miterlimit="10"/>
<path d="M74.1401 11.0253H70.247V13.7357H73.7582V14.7631H70.247V17.4735H74.1401V18.5251H69.1484V9.9751H74.1401V11.0253Z" stroke="white" stroke-width="0.2" stroke-miterlimit="10"/>
<path d="M78.7726 18.5251H77.674V11.0253H75.2857V9.9751H81.1609V11.0253H78.7726V18.5251Z" stroke="white" stroke-width="0.2" stroke-miterlimit="10"/>
<path d="M85.4117 18.5251V9.9751H86.5103V18.5251H85.4117Z" stroke="white" stroke-width="0.2" stroke-miterlimit="10"/>
<path d="M91.3826 18.5251H90.284V11.0253H87.8957V9.9751H93.7709V11.0253H91.3826V18.5251Z" stroke="white" stroke-width="0.2" stroke-miterlimit="10"/>
<path d="M104.893 17.4207C104.052 18.2843 103.007 18.716 101.758 18.716C100.508 18.716 99.4635 18.2843 98.6242 17.4207C97.7834 16.5572 97.3645 15.4998 97.3645 14.2501C97.3645 13.0004 97.7834 11.943 98.6242 11.0795C99.4635 10.2159 100.508 9.78271 101.758 9.78271C103 9.78271 104.043 10.2173 104.887 11.0852C105.731 11.953 106.152 13.0075 106.152 14.2501C106.152 15.4998 105.732 16.5572 104.893 17.4207ZM99.435 16.7039C100.068 17.3452 100.841 17.6644 101.758 17.6644C102.674 17.6644 103.449 17.3438 104.08 16.7039C104.713 16.0627 105.031 15.2447 105.031 14.2501C105.031 13.2554 104.713 12.4375 104.08 11.7962C103.449 11.155 102.674 10.8358 101.758 10.8358C100.841 10.8358 100.068 11.1564 99.435 11.7962C98.8037 12.4375 98.4859 13.2554 98.4859 14.2501C98.4859 15.2447 98.8037 16.0627 99.435 16.7039Z" stroke="white" stroke-width="0.2" stroke-miterlimit="10"/>
<path d="M107.694 18.5251V9.9751H109.031L113.186 16.6256H113.233L113.186 14.9783V9.9751H114.285V18.5251H113.138L108.79 11.5512H108.743L108.79 13.1985V18.5251H107.694Z" stroke="white" stroke-width="0.2" stroke-miterlimit="10"/>
<g filter="url(#filter0_ii_2_299)">
<path d="M14.8713 10.7417C14.4566 11.1806 14.2115 11.8618 14.2115 12.7438V44.2591C14.2115 45.1426 14.4566 45.8224 14.8713 46.2613L14.9768 46.3639L32.6311 28.7095V28.5015V28.2934L14.9768 10.6377L14.8713 10.7417Z" fill="url(#paint0_linear_2_299)"/>
<path d="M38.5149 34.5962L32.6311 28.7096V28.5015V28.2935L38.5164 22.4082L38.6489 22.4837L45.6214 26.4452C47.6121 27.5767 47.6121 29.4278 45.6214 30.5606L38.6489 34.5221L38.5149 34.5962Z" fill="url(#paint1_linear_2_299)"/>
<g filter="url(#filter1_i_2_299)">
<path d="M38.6489 34.5207L32.6297 28.5015L14.8713 46.2612C15.5268 46.9566 16.6113 47.0421 17.8325 46.3496L38.6489 34.5207Z" fill="url(#paint2_linear_2_299)"/>
</g>
<path d="M38.6489 22.4822L17.8325 10.6547C16.6113 9.96071 15.5268 10.0476 14.8713 10.743L32.6311 28.5028L38.6489 22.4822Z" fill="url(#paint3_linear_2_299)"/>
</g>
<defs>
<filter id="filter0_ii_2_299" x="14.2115" y="10.1758" width="32.9029" height="36.6521" filterUnits="userSpaceOnUse" color-interpolation-filters="sRGB">
<feFlood flood-opacity="0" result="BackgroundImageFix"/>
<feBlend mode="normal" in="SourceGraphic" in2="BackgroundImageFix" result="shape"/>
<feColorMatrix in="SourceAlpha" type="matrix" values="0 0 0 0 0 0 0 0 0 0 0 0 0 0 0 0 0 0 127 0" result="hardAlpha"/>
<feOffset dy="-0.15"/>
<feComposite in2="hardAlpha" operator="arithmetic" k2="-1" k3="1"/>
<feColorMatrix type="matrix" values="0 0 0 0 0 0 0 0 0 0 0 0 0 0 0 0 0 0 0.12 0"/>
<feBlend mode="normal" in2="shape" result="effect1_innerShadow_2_299"/>
<feColorMatrix in="SourceAlpha" type="matrix" values="0 0 0 0 0 0 0 0 0 0 0 0 0 0 0 0 0 0 127 0" result="hardAlpha"/>
<feOffset dy="0.15"/>
<feComposite in2="hardAlpha" operator="arithmetic" k2="-1" k3="1"/>
<feColorMatrix type="matrix" values="0 0 0 0 1 0 0 0 0 1 0 0 0 0 1 0 0 0 0.25 0"/>
<feBlend mode="normal" in2="effect1_innerShadow_2_299" result="effect2_innerShadow_2_299"/>
</filter>
<filter id="filter1_i_2_299" x="14.8713" y="28.5015" width="23.7775" height="18.3264" filterUnits="userSpaceOnUse" color-interpolation-filters="sRGB">
<feFlood flood-opacity="0" result="BackgroundImageFix"/>
<feBlend mode="normal" in="SourceGraphic" in2="BackgroundImageFix" result="shape"/>
<feColorMatrix in="SourceAlpha" type="matrix" values="0 0 0 0 0 0 0 0 0 0 0 0 0 0 0 0 0 0 127 0" result="hardAlpha"/>
<feOffset dy="-0.15"/>
<feComposite in2="hardAlpha" operator="arithmetic" k2="-1" k3="1"/>
<feColorMatrix type="matrix" values="0 0 0 0 0 0 0 0 0 0 0 0 0 0 0 0 0 0 0.08 0"/>
<feBlend mode="normal" in2="shape" result="effect1_innerShadow_2_299"/>
</filter>
<linearGradient id="paint0_linear_2_299" x1="31.0662" y1="12.4104" x2="7.15181" y2="36.3247" gradientUnits="userSpaceOnUse">
<stop stop-color="#00A0FF"/>
<stop offset="0.0066" stop-color="#00A1FF"/>
<stop offset="0.2601" stop-color="#00BEFF"/>
<stop offset="0.5122" stop-color="#00D2FF"/>
<stop offset="0.7604" stop-color="#00DFFF"/>
<stop offset="1" stop-color="#00E3FF"/>
</linearGradient>
<linearGradient id="paint1_linear_2_299" x1="48.2128" y1="28.5015" x2="13.7336" y2="28.5015" gradientUnits="userSpaceOnUse">
<stop stop-color="#FFE000"/>
<stop offset="0.4087" stop-color="#FFBD00"/>
<stop offset="0.7754" stop-color="#FFA500"/>
<stop offset="1" stop-color="#FF9C00"/>
</linearGradient>
<linearGradient id="paint2_linear_2_299" x1="35.3801" y1="31.7703" x2="2.94922" y2="64.2011" gradientUnits="userSpaceOnUse">
<stop stop-color="#FF3A44"/>
<stop offset="1" stop-color="#C31162"/>
</linearGradient>
<linearGradient id="paint3_linear_2_299" x1="10.3988" y1="0.251904" x2="24.8801" y2="14.7332" gradientUnits="userSpaceOnUse">
<stop stop-color="#32A071"/>
<stop offset="0.0685" stop-color="#2DA771"/>
<stop offset="0.4762" stop-color="#15CF74"/>
<stop offset="0.8009" stop-color="#06E775"/>
<stop offset="1" stop-color="#00F076"/>
</linearGradient>
</defs>
</svg>
