<svg width="137" height="27" viewBox="0 0 137 27" fill="none" xmlns="http://www.w3.org/2000/svg">
<g opacity="0.4" clip-path="url(#clip0_2_236)">
<path d="M36.1045 2.32924C36.1353 2.14359 36.1321 2.1155 36.1434 2.09366C37.2172 0.0202179 37.2172 0.0202179 39.6374 0.0202179C65.1494 0.0202179 90.6631 0.0202179 116.175 0.0202179C116.49 0.0202179 116.806 0.0202179 117.273 0.0202179C116.822 0.780012 116.479 1.454 116.032 2.05466C115.898 2.23719 115.474 2.28868 115.184 2.28868C110.13 2.30272 105.077 2.29804 100.023 2.29804C92.6437 2.29804 85.2665 2.30584 77.8876 2.28244C77.2583 2.28088 76.9371 2.4681 76.637 2.99543C72.272 10.6667 67.8697 18.3192 63.5192 25.9983C63.0991 26.7394 62.6612 27.0389 61.7788 26.9828C60.4925 26.9001 59.1964 26.9609 57.7268 26.9609C62.4195 18.714 67.0457 10.584 71.7448 2.32612C59.7917 2.32924 47.9781 2.32924 36.1045 2.32924Z" fill="black"/>
<path d="M127.225 0.0218188C124.62 4.24671 122.109 8.32027 119.508 12.5374C120.853 12.5374 122.029 12.5654 123.204 12.5108C123.41 12.5015 123.648 12.1754 123.789 11.9476C126.08 8.24382 128.37 4.53846 130.623 0.814376C130.975 0.230879 131.343 -0.0296662 132.075 0.00153686C133.557 0.0670633 135.045 0.0218188 136.691 0.0218188C136.48 0.383774 136.325 0.663042 136.159 0.936068C130.993 9.42642 125.823 17.9152 120.668 26.4134C120.418 26.8252 120.146 26.9859 119.65 26.9766C118.11 26.9469 116.571 26.9657 114.848 26.9657C117.291 22.8531 119.672 18.8466 122.151 14.6763C120.796 14.6763 119.622 14.6482 118.452 14.7029C118.243 14.7122 117.995 15.0274 117.857 15.2536C115.703 18.8232 113.539 22.3866 111.442 25.9874C111.001 26.7457 110.517 27.0405 109.615 26.9875C108.253 26.9064 106.882 26.9672 105.367 26.9672C106.068 25.7987 106.692 24.7471 107.325 23.7018C111.966 16.029 116.613 8.35927 121.234 0.675523C121.534 0.177834 121.846 -0.00314359 122.435 0.0108978C123.969 0.0483414 125.509 0.0218188 127.225 0.0218188Z" fill="black"/>
<path d="M32.2877 0.0374079C31.8011 0.800323 31.428 1.45871 30.9673 2.05781C30.8359 2.22942 30.4564 2.28871 30.1903 2.29027C27.4068 2.30587 24.6217 2.36204 21.8399 2.27467C20.3686 2.22942 19.4797 2.81604 18.7693 3.98303C16.148 8.28281 13.4748 12.5514 10.8324 16.8387C9.55262 18.9153 8.29551 21.0043 7.03353 23.0902C6.91187 23.2915 6.78535 23.499 6.71722 23.719C6.51122 24.3742 6.8113 24.8095 7.5234 24.8329C8.49502 24.8641 9.46989 24.8626 10.4415 24.8267C10.6637 24.8189 10.9703 24.6644 11.0839 24.4866C12.9931 21.502 14.8795 18.5049 16.7676 15.5079C16.7903 15.472 16.7709 15.4096 16.7709 15.291C16.0069 15.291 15.238 15.291 14.2712 15.291C14.6816 14.564 15.0028 13.9586 15.3694 13.3798C15.444 13.2613 15.6922 13.1864 15.8593 13.1864C18.3994 13.1817 20.938 13.1926 23.4782 13.202C23.5236 13.202 23.569 13.2488 23.6939 13.3174C23.1586 14.2036 22.6282 15.0913 22.0913 15.9759C19.9826 19.4504 17.8642 22.9202 15.7733 26.4055C15.5089 26.8471 15.2153 27.0031 14.6881 27C10.7692 26.9781 6.85023 26.989 2.93291 26.989C1.29299 26.989 0.379759 25.8845 0.788523 24.3181C0.931266 23.7736 1.1908 23.2416 1.48439 22.7532C5.39523 16.2318 9.33688 9.72908 13.238 3.20452C14.4221 1.22468 16.2226 0.131017 18.5016 0.0717313C23.037 -0.0452802 27.5772 0.0374079 32.2877 0.0374079Z" fill="black"/>
<path d="M21.1543 26.9859C21.7026 26.0467 22.1697 25.237 22.6466 24.4335C26.2168 18.4176 29.7951 12.4079 33.3507 6.38411C33.7595 5.69296 34.3386 5.35753 35.1155 5.35285C38.2494 5.33569 41.3833 5.30604 44.5155 5.35441C46.5528 5.38561 47.3055 6.59941 46.3695 8.32338C45.4206 10.0707 44.389 11.776 43.3589 13.4797C42.8593 14.3066 41.9526 14.5671 41.0621 14.8058C40.1391 15.0523 40.1261 15.0913 40.6063 15.8558C41.1724 16.7576 40.9907 17.65 40.5025 18.5127C39.4319 20.4036 38.3143 22.2711 37.2826 24.1808C36.8268 25.0248 36.5332 25.95 36.1066 26.9828C34.8414 26.9828 33.3037 27.0093 31.7692 26.9719C31.0165 26.9532 31.0668 26.3104 31.1204 25.861C31.1739 25.4148 31.4026 24.9702 31.6281 24.5614C33.1106 21.8827 34.6143 19.2148 36.1082 16.5423C36.5916 15.6779 36.3516 15.3378 35.3556 15.2349C34.1082 15.1054 33.3361 15.4455 32.6808 16.5953C30.8041 19.895 28.7408 23.0965 26.778 26.3509C26.5023 26.8081 26.2136 27.014 25.6442 26.9984C24.2184 26.9594 22.7877 26.9859 21.1543 26.9859ZM34.8982 13.1755C35.5681 13.1755 36.0758 13.1224 36.5673 13.1864C37.7303 13.3361 38.4749 12.8073 38.9988 11.8914C39.6736 10.712 40.3484 9.5325 40.9891 8.3343C41.3443 7.67123 41.1237 7.31396 40.3646 7.19071C38.8123 6.93952 38.4522 7.10646 37.6671 8.43883C37.5876 8.57456 37.5032 8.70717 37.4238 8.84135C36.6127 10.2346 35.8017 11.6278 34.8982 13.1755Z" fill="black"/>
<path d="M76.5058 20.7547C75.8959 21.8062 75.3638 22.7002 74.8577 23.6082C74.4182 24.3945 74.642 24.7331 75.5569 24.8423C76.5577 24.9624 77.2081 24.7424 77.7256 23.7626C79.1173 21.1275 80.6648 18.5689 82.149 15.979C82.2625 15.7793 82.3566 15.5703 82.535 15.2161C82.0776 15.2161 81.7435 15.2239 81.4093 15.2146C80.1165 15.1818 78.8091 15.2411 77.5326 15.0804C76.2738 14.9213 75.7888 14.0179 76.1554 12.8462C76.2625 12.5015 76.4052 12.1582 76.5934 11.8493C77.6364 10.1222 78.6907 8.39981 79.758 6.68521C80.3144 5.7928 81.1644 5.33879 82.2415 5.33411C84.9698 5.32163 87.6981 5.31851 90.4281 5.33255C91.7647 5.33879 92.6049 5.89889 92.7104 6.85994C92.7477 7.2063 92.7055 7.61194 92.5449 7.91461C92.081 8.78985 91.6966 9.80395 90.9666 10.4109C90.5076 10.7915 89.4792 10.5528 88.7071 10.5653C87.823 10.5809 86.939 10.5684 85.8928 10.5684C86.3615 9.79459 86.7752 9.13777 87.1612 8.46534C87.6446 7.62442 87.3883 7.23594 86.4005 7.14077C85.4499 7.04872 84.8092 7.26402 84.3534 8.18607C83.6478 9.61205 82.7638 10.9553 81.9592 12.3361C81.8327 12.5545 81.7321 12.7854 81.5553 13.138C82.8822 13.138 84.0858 13.138 85.2893 13.138C87.9788 13.1396 88.7979 14.4126 87.4889 16.6499C85.7159 19.6797 83.896 22.6846 82.0744 25.6863C81.578 26.5038 80.78 26.9407 79.7937 26.9469C77.0119 26.9672 74.2284 26.9937 71.4465 26.9469C69.3394 26.911 68.5981 25.6629 69.5649 23.8625C70.0596 22.942 70.6111 22.0465 71.1756 21.1634C71.2957 20.9746 71.5795 20.7734 71.7936 20.7687C73.2989 20.7391 74.8091 20.7547 76.5058 20.7547Z" fill="black"/>
<path d="M104.768 10.5809C105.244 9.7509 105.668 9.03635 106.068 8.31088C106.404 7.70242 106.218 7.30302 105.501 7.21565C104.915 7.14544 104.31 7.147 103.723 7.19849C103.514 7.21721 103.261 7.44031 103.142 7.63533C99.8786 12.9882 96.6263 18.3458 93.3838 23.7096C92.9442 24.4366 93.1826 24.7939 94.0845 24.8407C96.1592 24.9483 96.1527 24.9452 97.2232 23.2025C97.7164 22.3991 98.0586 21.3085 98.7983 20.9044C99.538 20.4988 100.688 20.7843 101.66 20.7718C102.25 20.7656 102.841 20.7703 103.595 20.7703C103.202 21.4286 102.878 21.9794 102.549 22.5285C101.966 23.4943 101.369 24.4522 100.8 25.4242C100.203 26.443 99.3238 26.9687 98.0975 26.9656C95.4763 26.9594 92.8534 26.9703 90.2321 26.9563C89.833 26.9547 89.4227 26.8954 89.035 26.7956C87.9109 26.5069 87.361 25.6972 87.8298 24.6738C88.49 23.2337 89.3188 21.8577 90.1461 20.4957C92.9263 15.9229 95.7407 11.3719 98.5323 6.80689C99.1227 5.84272 100.008 5.36219 101.134 5.34971C103.674 5.32162 106.218 5.28574 108.756 5.37623C109.447 5.40119 110.221 5.74443 110.764 6.16723C111.066 6.40125 111.176 7.17977 111.017 7.58229C110.639 8.54178 110.059 9.42951 109.533 10.3313C109.46 10.4561 109.236 10.5669 109.079 10.5684C107.684 10.5887 106.289 10.5809 104.768 10.5809Z" fill="black"/>
<path d="M60.5912 13.1255C60.1419 13.8214 59.8126 14.4111 59.3941 14.9353C59.2513 15.1132 58.8864 15.199 58.622 15.2036C57.2708 15.2302 55.9196 15.1927 54.5684 15.2349C54.2797 15.2442 53.866 15.4221 53.7363 15.6436C52.0428 18.5377 50.3899 21.4552 48.7322 24.368C48.6721 24.4741 48.6592 24.6036 48.5927 24.8251C50.4305 24.8251 52.1937 24.8251 54.0866 24.8251C53.686 25.5319 53.3681 26.1247 53.0128 26.6957C52.9333 26.8237 52.7241 26.95 52.5749 26.95C48.9625 26.9641 45.3501 26.961 41.582 26.961C42.4417 25.471 43.2349 24.095 44.0297 22.7205C47.1279 17.3707 50.2472 12.0303 53.3113 6.66181C53.8628 5.69452 54.5668 5.29356 55.7006 5.31072C58.7793 5.35441 61.8596 5.32632 65.1006 5.32632C64.7632 5.9301 64.5085 6.46056 64.1743 6.93952C64.077 7.07994 63.7559 7.12674 63.5352 7.1283C62.0754 7.1439 60.6155 7.11894 59.1573 7.15326C58.8864 7.1595 58.4987 7.3124 58.3738 7.51678C57.3259 9.24231 56.3267 10.9944 55.3146 12.7386C55.2659 12.8229 55.2367 12.9196 55.1523 13.1224C56.9788 13.1255 58.7096 13.1255 60.5912 13.1255Z" fill="black"/>
<path d="M34.8975 13.1754C35.7993 11.6277 36.612 10.2345 37.423 8.84287C37.5025 8.70714 37.5869 8.57452 37.6663 8.44035C38.4514 7.10798 38.8115 6.94104 40.3639 7.19223C41.123 7.31548 41.342 7.67275 40.9884 8.33582C40.3476 9.53246 39.6729 10.7119 38.9981 11.893C38.4741 12.8088 37.7296 13.3377 36.5666 13.1879C36.0751 13.1224 35.5674 13.1754 34.8975 13.1754Z" fill="white"/>
</g>
<defs>
<clipPath id="clip0_2_236">
<rect width="136" height="27" fill="white" transform="translate(0.691406 -4.57764e-05)"/>
</clipPath>
</defs>
</svg>
