<svg width="101" height="59" viewBox="0 0 101 59" fill="none" xmlns="http://www.w3.org/2000/svg">
<g opacity="0.4" clip-path="url(#clip0_2_247)">
<path d="M100.625 55.5118C100.506 55.5195 100.366 55.4937 100.263 55.5429C97.9513 56.6875 96.6611 56.5269 95.4792 54.2325C94.3336 52.008 93.7014 49.5141 92.8885 47.1239C92.7982 46.8572 92.9479 46.4428 93.1027 46.1631C95.358 42.1233 96.6249 37.739 97.5048 33.2356C98.2506 29.4236 98.8621 25.5806 98.279 21.678C98.1216 20.624 97.9796 19.2049 96.7849 19.0702C95.8224 18.9615 94.6897 19.583 93.7788 20.1268C93.1595 20.4971 92.7079 21.2455 92.3286 21.9085C91.7532 22.9133 91.2061 23.9543 90.8165 25.042C88.2851 32.0884 88.1561 39.3213 89.4257 46.6034C89.6786 48.0614 88.8193 48.5456 88.0013 49.1671C87.1601 49.8068 86.1976 50.0036 85.248 49.3355C83.6766 48.2297 82.5515 43.7988 83.2379 41.9809C84.4094 38.881 85.5887 35.7761 86.5486 32.6089C87.2762 30.2109 87.5678 27.7015 86.9175 25.2025C86.6234 24.0708 86.0505 23.1023 84.7784 22.8615C83.4934 22.6206 82.4225 23.1463 81.78 24.1951C81.1375 25.244 80.5543 26.4015 80.2782 27.5902C79.0448 32.943 79.0396 38.3657 79.7467 43.7833C79.9428 45.2853 79.2822 46.2564 78.3636 47.1886C77.6566 47.906 76.867 47.8153 76.4954 46.9038C76.0645 45.8446 75.6052 44.6767 75.631 43.5683C75.711 40.352 76.0154 37.1408 76.258 33.9296C76.3715 32.4302 76.5831 30.9386 76.6657 29.4366C76.7199 28.4499 76.0903 28.0719 75.1613 28.1211C73.9047 28.1884 73.1744 28.8436 72.9964 30.0918C72.5706 33.0802 72.2713 36.092 71.6933 39.0494C71.283 41.1418 70.5838 43.1902 69.8251 45.1868C69.629 45.7048 68.7078 46.2564 68.1479 46.2253C67.7324 46.202 67.0925 45.2956 67.0331 44.7311C66.8654 43.1566 66.7829 41.538 66.9661 39.9713C67.2963 37.1486 67.8511 34.3518 68.2975 31.542C68.5169 30.1643 67.4796 29.2217 66.2048 29.7733C65.6268 30.0244 65.0643 30.7003 64.8501 31.3089C64.4992 32.3111 64.285 33.4169 64.2825 34.4786C64.2747 36.9207 62.791 38.4641 61.1576 40.2225C61.0673 39.298 61.0544 38.5677 60.9176 37.8581C60.5538 35.9599 60.2958 34.0203 59.7023 32.1946C59.0933 30.3197 57.8109 29.6541 55.9582 30.2239C54.5983 30.6408 53.1791 31.2675 52.1211 32.1894C48.8286 35.0613 47.1952 38.8448 46.7204 43.1695C46.674 43.5839 46.2998 43.9594 46.0779 44.353C45.5747 44.0578 44.7903 43.8713 44.6277 43.444C44.3155 42.6309 44.1865 41.6597 44.2897 40.7922C44.5322 38.7878 44.9219 36.799 45.327 34.8205C45.4792 34.0747 45.567 33.4272 44.7851 33.0466C43.9491 32.64 43.2679 32.943 42.7982 33.6862C42.5737 34.0436 42.4163 34.4579 42.3028 34.8697C42.0138 35.9055 41.8641 36.9932 41.4797 37.9928C40.6178 40.2303 39.7482 42.4755 38.6593 44.6042C38.3574 45.192 37.2452 45.7281 36.5614 45.6659C35.5241 45.5701 35.3796 44.4592 35.3306 43.5217C35.168 40.5125 36.1331 37.8219 37.7665 35.3669C39.4515 32.8342 41.7274 31.2105 44.8832 31.0914C45.1825 31.081 45.4741 30.9153 45.7708 30.8221C45.7863 30.7133 45.8018 30.6019 45.8173 30.4932C45.3476 30.2627 44.8987 29.9493 44.4032 29.8121C42.1067 29.175 40.0192 29.7707 38.2413 31.2312C34.203 34.546 32.1284 38.9147 31.6742 44.0992C31.6303 44.5938 31.6561 45.2723 31.3594 45.5339C30.2731 46.492 29.1429 47.4606 27.8785 48.1416C26.4825 48.8926 25.231 48.3643 24.6349 46.8572C24.2143 45.7954 24.1137 44.6094 23.8634 43.4777C23.6699 42.605 23.9769 42.1 24.7872 41.6338C27.334 40.1707 29.7338 38.4952 31.4936 36.0687C32.678 34.4346 33.3128 32.6452 32.9463 30.6019C32.4096 27.6083 29.597 26.1244 27.0269 27.7274C25.6645 28.5768 24.4646 29.9079 23.5821 31.2752C21.7036 34.1834 20.9321 37.5163 20.5708 40.9476C20.5244 41.3826 20.4367 41.9809 20.1451 42.1958C19.1568 42.9235 18.0679 43.5139 17.1544 44.0733C14.9663 41.942 12.84 39.9946 10.8557 37.9047C9.02622 35.9781 7.17609 34.0255 5.65367 31.8579C4.01771 29.5246 4.24478 26.9454 5.79817 24.5655C7.3593 22.17 10.2983 21.2041 13.0723 22.082C15.3998 22.82 16.8732 25.0135 16.837 27.6575C16.8112 29.4159 15.8023 30.7133 14.8759 32.0677C14.6566 32.3862 14.6256 32.8368 14.5069 33.2278C14.9456 33.3055 15.3791 33.4143 15.8204 33.448C16.0191 33.4635 16.2358 33.3521 16.4293 33.2615C18.8084 32.1376 20.4083 30.3896 20.6457 27.673C20.8753 25.0497 19.7271 23.0583 17.526 21.7169C14.4553 19.8445 11.1318 19.57 7.70249 20.4453C1.23864 22.0949 -1.22046 27.8647 2.30175 33.5386C3.69516 35.7812 5.57626 37.739 7.37736 39.6942C9.43134 41.9265 11.6427 44.0137 13.836 46.2123C12.102 47.5253 10.4893 48.6078 9.0417 49.8819C7.50122 51.2414 5.95041 52.6528 4.70667 54.2739C3.03716 56.4466 3.78289 58.1998 6.48971 58.5753C10.8918 59.1865 14.8527 57.9745 18.1891 55.0223C19.6522 53.7275 20.3722 51.9743 19.8948 49.9984C19.5464 48.556 18.9375 47.1783 18.4059 45.6556C18.9581 45.2956 19.6238 44.8605 20.3309 44.3996C20.6895 45.7928 20.9192 47.1084 21.3682 48.3436C22.2352 50.7235 24.0285 52.1193 26.2167 51.8086C27.4553 51.6325 28.6758 50.8918 29.7622 50.1849C30.704 49.5737 31.4446 48.6544 32.2729 47.8723C33.8469 49.6618 35.568 50.2159 37.3949 49.25C38.3884 48.7243 39.2966 47.9137 40.0372 47.054C40.881 46.0725 41.4925 44.8942 42.0731 44.0034C42.5918 44.8864 42.935 46.2253 43.7504 46.6474C44.5838 47.0799 45.8792 46.6163 47.1487 46.5361C48.2041 48.1416 49.2389 48.6777 51.1354 47.9629C52.2579 47.5408 53.4758 46.8675 54.1777 45.943C55.3853 44.3556 56.2239 42.4858 57.2148 40.7326C57.3593 40.4763 57.4728 40.2044 57.7438 39.6502C57.8496 40.6058 57.8883 41.2091 57.9915 41.8022C58.2211 43.1203 57.9089 44.1769 56.9258 45.1765C55.8162 46.3056 54.7738 47.5616 53.9713 48.9211C52.9572 50.6458 52.0128 52.4664 51.4115 54.3646C50.8155 56.255 51.4915 57.7311 52.7404 58.4717C54.0848 59.2694 56.2239 59.2072 57.4238 57.9435C58.5153 56.7911 59.4675 55.3797 60.061 53.9088C61.2557 50.9436 61.4182 47.7428 61.1473 44.6016C60.9564 42.3771 62.4581 41.5018 63.5341 40.2846C63.9418 42.4729 64.1225 44.6482 64.7805 46.6655C65.601 49.1749 68.2614 49.7887 70.3051 48.0924C71.0147 47.5046 71.5488 46.6811 72.0752 45.9042C72.4339 45.3759 72.6377 44.744 72.8983 44.1924C73.4376 45.7281 73.8092 47.3 74.5188 48.6984C75.6206 50.8659 77.4992 51.0653 79.259 49.3743C79.708 48.9418 80.1131 48.4628 80.5672 47.9733C81.46 50.0813 82.0948 52.3162 84.4765 52.9506C86.9821 53.6162 88.4555 51.6584 90.1662 50.1771C90.3391 50.6924 90.4217 51.1171 90.6152 51.4797C91.6242 53.3624 92.486 55.3616 93.7426 57.063C94.9967 58.7618 97.2158 59.0881 98.9937 58.2905C100.284 57.7078 100.908 56.6616 100.625 55.5118Z" fill="white"/>
<path d="M23.3908 12.8292C23.4527 12.9845 23.5147 13.1425 23.5766 13.2979C24.5262 13.0596 25.5119 12.9146 26.4202 12.565C29.6534 11.3116 32.9769 10.5425 36.4424 10.3224C39.6653 10.1178 44.3203 12.7541 45.9098 15.8202C44.2248 17.0684 42.4211 17.7624 40.2665 17.2652C39.833 17.1642 39.335 17.3403 38.8679 17.3869C39.0898 17.8116 39.2137 18.3503 39.5491 18.6429C41.536 20.3754 43.8713 20.8364 46.4155 20.3495C49.5739 19.7461 52.4304 18.371 55.2559 16.8871C56.2081 16.3873 57.3279 16.2035 58.3704 15.8772C58.4169 16.0196 58.4633 16.162 58.5098 16.3019C58.3291 16.3873 58.1098 16.4339 57.973 16.566C57.7305 16.7991 57.5395 17.0865 57.3254 17.3507C57.6531 17.4931 57.9963 17.7857 58.3085 17.7547C61.3404 17.4543 63.7866 18.5264 66.0083 20.5852C68.3926 22.7941 71.1407 24.5033 74.3791 25.2206C74.7352 25.3009 75.1558 25.1015 75.5454 25.029C75.4319 24.6846 75.4009 24.2676 75.1868 24.0035C73.236 21.5977 71.2594 19.2126 69.2777 16.8302C68.3126 15.6674 67.0173 15.1288 65.5516 15.0329C63.2809 14.8827 61.005 14.8232 58.7368 14.6445C58.1408 14.5979 57.5628 14.2664 56.9796 14.0541C56.0481 13.7148 55.114 13.0674 54.1902 13.0829C52.1775 13.1166 50.4822 12.5106 48.9314 11.322C48.0773 10.6668 47.2232 10.0142 46.3949 9.32794C44.5086 7.7612 42.4598 6.89367 39.9801 7.72754C39.7814 7.79487 39.5543 7.76897 39.3401 7.80264C34.2284 8.57436 29.1863 9.59727 24.552 12.0471C24.1417 12.2542 23.7779 12.5624 23.3908 12.8292Z" fill="white"/>
<path d="M50.668 0.00783182C47.0607 -0.113882 43.1798 1.28971 39.7582 4.00625C39.2292 4.42578 38.7518 4.95147 38.3725 5.51084C38.2177 5.74132 38.3906 6.19192 38.4138 6.54152C38.7183 6.47937 39.0821 6.50267 39.3144 6.33694C40.0859 5.79311 40.7955 5.16124 41.5516 4.59928C48.1909 -0.334002 59.6839 0.126955 64.9891 9.26583C65.7323 10.5451 66.0806 12.0523 66.6586 13.4326C66.7851 13.7356 67.1205 13.9479 67.3579 14.2017C67.5411 13.8728 67.8972 13.531 67.8766 13.2125C67.825 12.4485 67.665 11.6768 67.4327 10.9439C65.3194 4.33514 59.0078 0.0259594 50.668 0.00783182Z" fill="white"/>
<path d="M33.0598 17.3973C33.2533 20.8855 34.4944 23.9517 35.9833 26.9272C36.1949 27.3493 37.0826 27.8388 37.4283 27.7041C38.3727 27.3364 37.7199 26.619 37.4309 26.1192C36.1614 23.9128 35.4131 21.533 35.3589 19.0106C35.315 16.9674 35.6066 14.9164 35.6866 12.868C35.7021 12.4536 35.4466 12.0289 35.315 11.6094C34.9976 11.8891 34.497 12.1144 34.3912 12.4614C33.8881 14.0877 33.4933 15.7503 33.0598 17.3973Z" fill="white"/>
<path d="M67.9725 23.0039C67.539 22.8175 67.2113 22.543 66.9403 22.5922C66.592 22.6543 66.1688 22.9003 65.9882 23.1981C65.2579 24.4023 64.587 25.6479 63.9394 26.9013C63.7665 27.2328 63.751 27.6446 63.6633 28.0201C64.1329 27.9968 64.8683 28.1521 65.0257 27.9191C65.9934 26.4792 66.8294 24.9513 67.9725 23.0039Z" fill="white"/>
<path d="M100.624 55.5118C100.908 56.659 100.284 57.7078 98.9882 58.2879C97.2129 59.0855 94.9912 58.7592 93.7372 57.0604C92.4805 55.359 91.6187 53.3572 90.6097 51.4771C90.4162 51.1145 90.3337 50.6924 90.1608 50.1745C88.45 51.6558 86.9766 53.6161 84.471 52.948C82.0868 52.3136 81.4546 50.0787 80.5618 47.9707C80.1076 48.4602 79.7025 48.9392 79.2535 49.3717C77.4963 51.0653 75.6152 50.8633 74.5134 48.6958C73.8037 47.2974 73.4322 45.7255 72.8929 44.1898C72.6348 44.7414 72.4284 45.3733 72.0697 45.9016C71.5433 46.6785 71.0066 47.502 70.2996 48.0898C68.2559 49.7861 65.5956 49.1723 64.775 46.6629C64.1144 44.6456 63.9364 42.4677 63.5287 40.282C62.4527 41.4992 60.9483 42.3745 61.1418 44.599C61.4128 47.7402 61.2476 50.941 60.0555 53.9062C59.4646 55.3745 58.5098 56.7885 57.4183 57.9409C56.2185 59.2072 54.0793 59.2668 52.735 58.4692C51.4861 57.7285 50.81 56.2524 51.4061 54.362C52.0047 52.4638 52.9491 50.6432 53.9658 48.9185C54.7683 47.559 55.8108 46.303 56.9203 45.1739C57.9035 44.1743 58.2157 43.1177 57.986 41.7996C57.8828 41.2091 57.8467 40.6057 57.7383 39.6476C57.47 40.2018 57.3538 40.4763 57.2093 40.73C56.221 42.4832 55.3798 44.353 54.1722 45.9404C53.4704 46.8623 52.2524 47.5382 51.13 47.9603C49.2334 48.6751 48.2012 48.139 47.1433 46.5335C45.8737 46.6163 44.5784 47.0773 43.7449 46.6448C42.9295 46.2227 42.5863 44.8838 42.0677 44.0008C41.4871 44.8916 40.8755 46.0725 40.0318 47.0514C39.2912 47.9111 38.3855 48.7243 37.3894 49.2474C35.5625 50.2133 33.8414 49.6592 32.2674 47.8697C31.4417 48.6492 30.6985 49.5711 29.7567 50.1823C28.6703 50.8892 27.4498 51.6299 26.2113 51.806C24.0257 52.1167 22.2323 50.7209 21.3627 48.341C20.9112 47.1058 20.6841 45.7902 20.3254 44.397C19.6184 44.8579 18.9526 45.293 18.4004 45.653C18.932 47.1731 19.541 48.5534 19.8893 49.9958C20.3667 51.9717 19.6468 53.7249 18.1837 55.0197C14.8473 57.9719 10.8864 59.1839 6.48426 58.5727C3.77744 58.1972 3.03171 56.444 4.70122 54.2713C5.94754 52.6502 7.49577 51.2388 9.03625 49.8793C10.4813 48.6052 12.0966 47.5227 13.8306 46.2097C11.6373 44.0111 9.42589 41.9239 7.37191 39.6916C5.5708 37.7338 3.68713 35.776 2.2963 33.536C-1.22075 27.8647 1.23835 22.0949 7.7022 20.4427C11.1315 19.5674 14.455 19.8419 17.5257 21.7142C19.7268 23.0557 20.875 25.0471 20.6454 27.6704C20.408 30.387 18.8081 32.1376 16.429 33.2589C16.2381 33.3495 16.0188 33.4609 15.8201 33.4454C15.3788 33.4117 14.9427 33.3029 14.5067 33.2252C14.6254 32.8342 14.6563 32.3862 14.8756 32.0651C15.8046 30.7133 16.8109 29.4133 16.8367 27.6549C16.8729 25.0135 15.3995 22.82 13.0642 22.082C10.2929 21.2041 7.35384 22.1726 5.79013 24.5654C4.23675 26.9453 4.00967 29.5246 5.64563 31.8579C7.16548 34.0254 9.01561 35.978 10.8477 37.9047C12.8294 39.992 14.9582 41.942 17.1464 44.0733C18.0624 43.5139 19.1488 42.9235 20.137 42.1958C20.4286 41.9808 20.5164 41.3852 20.5628 40.9476C20.9241 37.5189 21.6982 34.186 23.5741 31.2752C24.4566 29.9079 25.6565 28.5768 27.0189 27.7274C29.589 26.1244 32.4042 27.6057 32.9383 30.6019C33.3047 32.6452 32.6699 34.4346 31.4855 36.0687C29.7231 38.4978 27.3234 40.1733 24.7791 41.6338C23.9689 42.1 23.6644 42.6049 23.8554 43.4777C24.1057 44.6068 24.2063 45.7954 24.6269 46.8572C25.223 48.3643 26.477 48.89 27.8704 48.1416C29.1348 47.4605 30.265 46.492 31.3514 45.5338C31.6481 45.2723 31.6223 44.5938 31.6662 44.0992C32.1203 38.9147 34.1949 34.546 38.2332 31.2312C40.0111 29.7706 42.0986 29.1724 44.3952 29.8121C44.8906 29.9493 45.3396 30.2601 45.8092 30.4932C45.7937 30.6019 45.7783 30.7133 45.7628 30.822C45.466 30.9153 45.1744 31.0784 44.8751 31.0914C41.7193 31.2131 39.4434 32.8342 37.7584 35.3669C36.1251 37.8219 35.16 40.5125 35.3226 43.5217C35.3716 44.4566 35.5161 45.5701 36.5534 45.6659C37.2372 45.7281 38.3519 45.192 38.6513 44.6042C39.7402 42.4755 40.6098 40.2302 41.4716 37.9928C41.8561 36.9958 42.0057 35.9081 42.2947 34.8697C42.4083 34.4605 42.5657 34.0436 42.7902 33.6862C43.2598 32.943 43.941 32.6374 44.7771 33.0466C45.5615 33.4272 45.4712 34.0772 45.3189 34.8205C44.9138 36.799 44.5216 38.7878 44.2816 40.7922C44.1758 41.6597 44.3074 42.6308 44.6197 43.444C44.7822 43.8713 45.5667 44.0577 46.0698 44.353C46.2918 43.9593 46.6685 43.5838 46.7124 43.1695C47.1871 38.8422 48.8205 35.0587 52.1131 32.1894C53.171 31.2675 54.5902 30.6408 55.9501 30.2238C57.8054 29.6541 59.0853 30.3171 59.6942 32.1946C60.2877 34.0203 60.5458 35.9599 60.9096 37.8581C61.0438 38.5651 61.0593 39.2954 61.1496 40.2225C62.7855 38.4641 64.2692 36.9233 64.2744 34.4786C64.277 33.4169 64.4912 32.3111 64.8421 31.3089C65.0563 30.7003 65.6188 30.0244 66.1968 29.7732C67.4715 29.2216 68.5088 30.1643 68.2895 31.542C67.8431 34.3517 67.2883 37.1486 66.958 39.9713C66.7748 41.538 66.8574 43.1565 67.0251 44.7311C67.0844 45.2956 67.7244 46.2046 68.1398 46.2253C68.6972 46.2564 69.6184 45.7048 69.8171 45.1868C70.5757 43.1902 71.275 41.1418 71.6853 39.0494C72.2633 36.092 72.5626 33.0776 72.9883 30.0918C73.1664 28.8435 73.8966 28.1884 75.1533 28.121C76.0822 28.0718 76.7118 28.4499 76.6576 29.4366C76.5777 30.936 76.3635 32.4302 76.2499 33.9296C76.01 37.1408 75.7029 40.352 75.6229 43.5683C75.5945 44.6767 76.0538 45.8446 76.4873 46.9038C76.8589 47.8153 77.6485 47.906 78.3555 47.1886C79.2716 46.2589 79.9347 45.2852 79.7386 43.7832C79.0316 38.3657 79.0368 32.943 80.2702 27.5902C80.5437 26.4015 81.1294 25.2439 81.772 24.1951C82.4145 23.1463 83.4853 22.618 84.7704 22.8615C86.0425 23.1023 86.6127 24.0708 86.9095 25.2025C87.5623 27.7015 87.2682 30.2135 86.5405 32.6089C85.5806 35.776 84.4014 38.8836 83.2299 41.9808C82.5435 43.7962 83.6685 48.2271 85.24 49.3355C86.1896 50.0036 87.152 49.8068 87.9932 49.1671C88.8112 48.5456 89.6705 48.0613 89.4176 46.6034C88.1481 39.3187 88.2771 32.0884 90.8084 25.0419C91.1981 23.9543 91.7451 22.9132 92.3205 21.9085C92.6999 21.2455 93.1514 20.4971 93.7707 20.1268C94.6816 19.583 95.817 18.964 96.7769 19.0702C97.9716 19.2049 98.1135 20.624 98.2709 21.678C98.8541 25.5806 98.2425 29.4236 97.4968 33.2356C96.6169 37.7364 95.3525 42.1233 93.0947 46.1631C92.9398 46.4428 92.7902 46.8546 92.8805 47.1239C93.6907 49.5141 94.3229 52.008 95.4712 54.2325C96.6556 56.5269 97.9432 56.6875 100.255 55.5428C100.364 55.4936 100.506 55.5221 100.624 55.5118ZM92.5115 43.4854C95.3551 36.149 96.9988 28.9238 96.5498 21.0332C93.4146 23.1256 90.891 37.7545 92.5115 43.4854ZM57.1809 34.4242C57.0545 34.0669 56.9926 33.1294 56.5694 32.9145C56.1385 32.6969 55.3282 33.1424 54.7244 33.3962C54.3864 33.5386 54.0922 33.8468 53.8419 34.1368C51.5067 36.8404 50.33 40.0282 50.1288 43.5605C50.0952 44.1303 50.5107 45.0366 50.9571 45.2309C51.3803 45.4121 52.3092 45.0315 52.6833 44.6042C55.1554 41.784 56.6313 38.4822 57.1809 34.4242ZM14.9144 48.0665C14.1609 48.6311 13.4255 49.0817 12.8062 49.6592C11.4308 50.9384 10.0607 52.2307 8.8066 53.6239C8.44534 54.0253 8.17182 55.043 8.40406 55.3227C8.75499 55.7448 9.6478 56.0401 10.1948 55.908C11.4979 55.5946 12.8759 55.2088 13.9699 54.4759C16.282 52.9247 16.571 50.6147 14.9144 48.0665ZM23.9612 39.9972C26.5364 38.2492 28.7761 36.6876 29.9941 34.0824C30.7114 32.5442 30.5566 31.037 29.6973 30.5424C28.7839 30.0167 27.4963 30.589 26.5106 32.0469C24.9598 34.3388 24.3689 36.9517 23.9612 39.9972ZM82.4119 38.4304C82.5693 38.4615 82.7293 38.4952 82.8867 38.5263C83.5705 35.934 84.3394 33.3573 84.9071 30.7392C85.2142 29.3278 85.2658 27.8388 85.2477 26.3886C85.2426 25.868 84.6955 25.3527 84.3962 24.8348C84.022 25.2569 83.4518 25.6194 83.3021 26.1115C82.0635 30.1513 82.3319 34.2999 82.4119 38.4304ZM58.097 46.0259C55.8056 48.4472 54.3812 50.9048 53.731 53.7741C53.5581 54.5432 53.3646 55.6568 54.3787 55.8432C54.967 55.952 55.7205 55.2295 56.3759 54.8385C56.5384 54.7426 56.6287 54.494 56.7165 54.3024C57.8699 51.7879 58.0763 49.1153 58.097 46.0259Z" fill="black"/>
<path d="M23.3908 12.8292C23.7779 12.5624 24.1417 12.2568 24.552 12.0393C29.1838 9.5895 34.2258 8.56918 39.3401 7.79487C39.5517 7.7638 39.7788 7.7871 39.9801 7.71977C42.4598 6.8885 44.5086 7.75344 46.3949 9.32018C47.2232 10.0064 48.0773 10.659 48.9314 11.3142C50.4822 12.5054 52.1775 13.1088 54.1902 13.0752C55.114 13.0596 56.0481 13.707 56.9796 14.0463C57.5628 14.2586 58.1382 14.5901 58.7368 14.6367C61.005 14.8154 63.2809 14.875 65.5516 15.0252C67.0173 15.121 68.3126 15.6596 69.2777 16.8224C71.2568 19.2049 73.236 21.5899 75.1868 23.9957C75.4009 24.2599 75.4293 24.6742 75.5454 25.0212C75.1558 25.0912 74.7378 25.2906 74.3791 25.2129C71.1407 24.4955 68.3926 22.789 66.0083 20.5774C63.7866 18.5186 61.3404 17.4491 58.3085 17.7469C57.9963 17.778 57.6531 17.4853 57.3254 17.3429C57.5395 17.0788 57.7305 16.7939 57.973 16.5583C58.1098 16.4262 58.3291 16.3796 58.5098 16.2941C58.4633 16.1517 58.4169 16.0092 58.3704 15.8694C57.3279 16.1983 56.2081 16.3796 55.2559 16.8794C52.4304 18.3632 49.5765 19.7383 46.4155 20.3417C43.8713 20.8286 41.536 20.3676 39.5491 18.6352C39.2137 18.3425 39.0898 17.8039 38.8679 17.3792C39.335 17.3326 39.833 17.1565 40.2665 17.2575C42.4211 17.7547 44.2222 17.0632 45.9098 15.8124C44.3203 12.7489 39.6653 10.1126 36.4424 10.3146C32.9795 10.5347 29.6534 11.3039 26.4202 12.5572C25.5145 12.9094 24.5262 13.0519 23.5766 13.2901C23.5147 13.1399 23.4527 12.9845 23.3908 12.8292Z" fill="black"/>
<path d="M50.668 0.00783148C59.0078 0.025959 65.3194 4.33514 67.4328 10.9491C67.6676 11.6794 67.825 12.4537 67.8766 13.2176C67.8972 13.5336 67.5437 13.8754 67.3579 14.2069C67.1179 13.9531 66.7851 13.7382 66.6586 13.4378C66.0806 12.0575 65.7323 10.5503 64.9891 9.27101C59.6839 0.129545 48.1909 -0.331413 41.5516 4.60446C40.7929 5.169 40.0833 5.79829 39.3144 6.34211C39.0821 6.50526 38.7183 6.48196 38.4138 6.5467C38.3906 6.19709 38.2177 5.74391 38.3725 5.51602C38.7518 4.95665 39.2266 4.43095 39.7582 4.01143C43.1798 1.28971 47.0607 -0.113882 50.668 0.00783148Z" fill="black"/>
<path d="M33.0598 17.3973C33.4933 15.7477 33.8881 14.0877 34.3912 12.4589C34.497 12.1118 34.9976 11.8865 35.315 11.6069C35.4466 12.0264 35.7021 12.4511 35.6866 12.8654C35.604 14.9138 35.315 16.9648 35.3589 19.0081C35.4131 21.5304 36.1614 23.9103 37.4309 26.1167C37.7199 26.6165 38.3727 27.3338 37.4283 27.7015C37.0826 27.8362 36.1949 27.3468 35.9833 26.9246C34.4944 23.9543 33.2533 20.8856 33.0598 17.3973Z" fill="black"/>
<path d="M67.9725 23.0039C66.8294 24.9513 65.9934 26.4792 65.0257 27.919C64.8683 28.1547 64.1303 27.9967 63.6633 28.02C63.751 27.6445 63.7665 27.2328 63.9394 26.9013C64.587 25.6479 65.2579 24.4049 65.9882 23.1981C66.1688 22.9003 66.592 22.6543 66.9403 22.5921C67.2113 22.5403 67.539 22.8148 67.9725 23.0039Z" fill="black"/>
<path d="M92.5117 43.4855C90.8912 37.7546 93.4148 23.1256 96.55 21.0332C96.9989 28.9239 95.3553 36.149 92.5117 43.4855Z" fill="white"/>
<path d="M57.1816 34.4243C56.6319 38.4848 55.156 41.7866 52.6865 44.6042C52.3124 45.0315 51.3809 45.4147 50.9603 45.2309C50.5139 45.0366 50.0984 44.1303 50.132 43.5605C50.3332 40.0283 51.5099 36.8378 53.8451 34.1368C54.0954 33.8468 54.387 33.5386 54.7276 33.3962C55.3314 33.1424 56.1417 32.697 56.5726 32.9145C56.9958 33.1269 57.0551 34.0669 57.1816 34.4243Z" fill="white"/>
<path d="M14.9148 48.0665C16.574 50.6147 16.285 52.9247 13.9704 54.4759C12.8763 55.2114 11.4984 55.5946 10.1953 55.908C9.64822 56.0401 8.75283 55.7448 8.40448 55.3227C8.17224 55.043 8.44576 54.0253 8.80702 53.6239C10.0637 52.2307 11.4313 50.9384 12.8066 49.6591C13.4259 49.0817 14.1587 48.6311 14.9148 48.0665Z" fill="white"/>
<path d="M23.9611 39.9972C24.3688 36.9518 24.9597 34.3388 26.5105 32.047C27.4962 30.5916 28.7838 30.0193 29.6973 30.5424C30.5566 31.037 30.714 32.5442 29.994 34.0824C28.7761 36.6876 26.5363 38.2466 23.9611 39.9972Z" fill="white"/>
<path d="M82.4119 38.4305C82.3319 34.3 82.0636 30.1513 83.2996 26.1089C83.4492 25.6169 84.0195 25.2543 84.3936 24.8322C84.693 25.3501 85.24 25.8655 85.2452 26.386C85.2632 27.8362 85.2116 29.3252 84.9045 30.7366C84.3369 33.3547 83.5679 35.9314 82.8841 38.5237C82.7267 38.4952 82.5693 38.4615 82.4119 38.4305Z" fill="white"/>
<path d="M58.0968 46.0259C58.0762 49.1154 57.8698 51.7879 56.7163 54.3024C56.6286 54.4967 56.5383 54.7427 56.3757 54.8385C55.7203 55.2295 54.9668 55.9521 54.3785 55.8433C53.3644 55.6542 53.5579 54.5407 53.7308 53.7742C54.3811 50.9048 55.8054 48.4472 58.0968 46.0259Z" fill="white"/>
</g>
<defs>
<clipPath id="clip0_2_247">
<rect width="100" height="59" fill="white" transform="translate(0.691589 4.57764e-05)"/>
</clipPath>
</defs>
</svg>
