<svg width="153" height="57" viewBox="0 0 153 57" fill="none" xmlns="http://www.w3.org/2000/svg">
<g opacity="0.4" clip-path="url(#clip0_2_266)">
<path d="M34.8677 13.5139C31.7024 16.9124 28.4725 20.0474 25.6264 23.5033C20.9373 29.2006 18.266 35.738 18.6877 43.2912C19.1247 51.0925 22.6168 57.9049 32.356 56.9044C34.4421 56.6906 37.1515 56.0987 38.2839 54.6591C39.7962 52.7307 40.047 49.8057 40.8564 47.2549C39.268 46.6821 38.6942 47.6023 38.0141 48.4539C36.7943 49.9775 35.6695 51.6462 34.199 52.8873C32.3028 54.4873 30.0001 55.293 27.5377 54.0596C25.1742 52.8758 24.3192 50.6916 24.4028 48.221C24.4978 45.441 24.665 42.6344 25.1818 39.9079C26.9715 30.4149 32.014 22.6174 37.7063 15.7401C40.6208 16.4618 43.1249 17.405 45.6937 17.6379C49.2238 17.9625 52.6323 17.1759 55.2162 14.4303C57.5114 11.9902 56.7362 8.9621 53.5253 8.11055C49.961 7.16736 46.3396 7.26665 43.0489 9.04611C41.6962 9.77546 40.8564 9.50052 39.6708 8.90864C34.5409 6.34637 29.3997 3.81083 24.19 1.43567C21.2831 0.110622 18.2166 -0.435436 14.979 0.389378C10.081 1.63806 7.08663 5.1817 7.33742 10.2337C7.44002 12.3225 8.4356 14.3501 8.84599 16.4427C9.12718 17.8823 9.31337 19.4097 9.11578 20.8417C9.02458 21.4985 7.89981 22.4837 7.26143 22.4722C6.37225 22.457 5.18668 21.8613 4.67749 21.1281C3.57932 19.5434 4.4343 18.0083 5.41847 16.6031C5.79466 16.0685 6.06066 15.4537 6.46345 14.7167C3.97071 14.5067 2.20755 15.2513 1.34117 16.8246C0.379797 18.5697 0.527993 20.3797 1.51597 22.0637C3.26013 25.0307 7.40962 26.0884 10.5065 24.4235C13.2995 22.9228 14.8042 18.9324 13.0259 15.889C12.1025 14.3081 11.0841 12.7807 10.1646 11.196C8.2152 7.84325 9.98216 4.09722 13.8581 3.8872C15.8378 3.78028 18.0874 4.13541 19.8315 5.02896C24.9842 7.68287 29.9545 10.7072 34.8677 13.5139Z" fill="white"/>
<path d="M61.4185 9.93204C61.1069 10.6919 60.8675 11.3831 60.5483 12.0399C57.0562 19.2036 53.6021 26.3863 50.0188 33.5042C49.0498 35.4287 48.9282 37.3075 49.2246 39.4268C51.1131 39.2244 52.8991 39.0373 54.7382 38.8387C53.0929 35.5395 55.73 33.5271 56.6534 30.5753C58.257 32.7863 58.6597 34.9285 58.9523 37.086C59.5109 41.1833 60.8561 44.8492 65.0322 46.4377C70.9524 48.6907 76.6827 47.8697 81.9988 44.5399C83.0475 43.8831 83.6821 42.558 84.6435 41.3743C81.577 40.538 80.5928 41.0726 79.1602 42.8788C78.2786 43.9938 76.8879 45.1852 75.5807 45.3876C69.6301 46.3155 65.0132 45.1508 63.3184 37.9146C62.5508 34.6345 62.0227 31.3772 59.0055 29.1166C68.0227 26.5467 71.7314 22.4303 70.4432 16.4771C67.2399 18.4207 64.0898 20.33 60.8789 22.2775C61.7187 20.5057 62.5622 18.6995 63.4286 16.9048C64.5002 14.6824 65.6174 12.4867 66.6623 10.2528C67.1601 9.19505 66.9891 7.95783 65.8188 7.77072C63.6224 7.42323 61.3995 7.67907 58.8003 8.88956C59.9023 9.3287 60.4951 9.56545 61.4185 9.93204Z" fill="white"/>
<path d="M91.4676 39.3695C92.562 39.2053 93.3029 39.1365 94.0249 38.9762C95.2599 38.705 96.0275 38.3537 96.3657 36.6774C97.2396 32.3586 99.7628 28.8493 102.905 25.8097C101.283 30.266 97.7982 34.0922 98.5848 39.484C100.842 39.0487 102.917 38.6439 104.995 38.243C104.991 38.0444 104.991 37.8459 104.988 37.6435C104.345 37.3724 103.707 37.1012 102.902 36.7576C103.354 35.6731 103.775 34.6344 104.22 33.6034C105.398 30.8769 106.675 28.1925 107.716 25.4164C108.028 24.5801 108.043 23.1367 107.537 22.6364C107.051 22.1553 105.63 22.2775 104.786 22.5906C103.521 23.0565 102.396 23.9195 101.283 24.5725C101.287 22.1858 100.69 21.6092 98.2846 22.2699C97.1788 22.5715 96.2023 23.362 95.1155 23.9539C95.0775 23.3925 95.0395 22.8579 94.9863 22.14C92.2466 22.7815 89.4574 22.3959 86.9419 23.4383C86.9571 23.6216 86.9761 23.8049 86.9913 23.9882C87.9451 24.225 88.9026 24.4617 90.3656 24.8245C89.009 27.486 87.8045 30.0827 86.3871 32.5609C85.1483 34.7299 84.4796 36.937 84.9241 39.5222C85.7411 39.3771 86.5277 39.1174 87.3143 39.1213C88.8077 39.1289 89.0584 38.4225 89.4802 37.021C90.8102 32.5953 93.1243 28.6431 96.4455 25.34C95.2105 30.098 91.3384 33.9013 91.4676 39.3695Z" fill="white"/>
<path d="M130.394 24.3243C130.554 24.4427 130.717 24.5649 130.877 24.6832C130.69 25.3171 130.573 25.9815 130.307 26.5734C128.904 29.6779 127.305 32.7061 126.077 35.8793C124.873 38.9876 125.12 39.1748 128.312 39.0144C129.068 38.9762 129.832 39.0067 130.584 38.9227C131.086 38.8655 131.572 38.6592 132.579 38.3729C131.523 37.8573 130.994 37.6015 130.28 37.254C130.538 36.4941 130.709 35.6884 131.074 34.9896C132.127 32.9696 133.358 31.0374 134.319 28.9753C134.999 27.5128 135.535 25.9281 135.794 24.3396C136.014 22.9801 135.284 21.888 133.685 22.2202C131.83 22.6021 130.022 23.1902 128.236 23.6789C128.399 22.5181 127.647 22.2661 126.298 22.5334C124.565 22.877 122.673 22.6479 120.845 24.1639C122.03 24.4388 122.775 24.6107 123.634 24.8092C121.966 29.8956 118.029 33.9662 118.269 39.6024C120.552 39.232 122.642 38.896 124.732 38.5561C124.763 38.3996 124.797 38.243 124.827 38.0865C122.935 37.6015 122.825 36.4712 123.531 35.0469C124.846 32.3891 126.043 29.6665 127.529 27.1119C128.182 26.0045 129.425 25.2446 130.394 24.3243Z" fill="white"/>
<path d="M75.0941 35.0316C75.4095 36.3146 75.5919 37.6932 76.1239 38.9189C76.3671 39.4764 77.3323 40.1065 77.9136 40.0569C79.7224 39.9003 82.2987 36.5094 82.3253 34.3672C81.5388 34.959 80.8358 35.486 79.6502 36.3757C79.6502 33.3132 79.6502 30.7739 79.6502 28.2307C79.4108 28.1161 79.1752 28.0054 78.9358 27.8908C76.6103 30.4913 74.2809 33.0918 71.9554 35.6922C71.8148 35.5586 71.6742 35.4249 71.5374 35.2913C72.8408 30.6288 75.1549 26.688 79.5324 23.9883C80.5964 26.4856 81.44 28.9753 84.3735 30.0254C84.2177 27.2875 84.0771 24.8054 83.9327 22.2355C82.3557 22.2355 80.7978 21.9835 79.35 22.2775C72.3088 23.7171 65.8794 30.0598 66.5481 38.2507C66.7115 40.2554 67.2815 40.7137 68.9459 39.591C71.0662 38.1628 73.0726 36.5438 75.0941 35.0316Z" fill="white"/>
<path d="M39.7658 35.1385C40.0774 36.4101 40.2712 37.7466 40.7652 38.9533C40.9856 39.4917 41.8102 40.1103 42.3688 40.1179C44.2991 40.1446 47.0389 36.7537 46.8755 34.5924C46.1497 35.1232 45.4923 35.6082 44.4055 36.4063C44.2611 33.4278 44.1395 30.896 44.0103 28.2612C42.631 29.6206 41.3846 30.8655 40.123 32.0951C38.9109 33.2788 37.6873 34.4473 36.4675 35.6196C37.5505 30.6898 39.8608 26.7261 44.2041 24.0722C45.2871 26.604 46.0889 29.1815 49.0604 30.1171C48.897 27.4364 48.7412 24.9238 48.5854 22.3997C40.5448 20.605 30.2547 28.792 31.1895 38.2315C31.3947 40.3012 32.0216 40.8244 33.7278 39.6597C35.7987 38.243 37.7595 36.6506 39.7658 35.1385Z" fill="white"/>
<path d="M140.969 32.4617C146.976 31.9195 153.166 26.8331 152.661 23.0527C148.876 22.7854 145.099 22.6327 141.714 24.8436C137.879 27.3486 135.447 30.6632 135.736 35.5204C135.862 37.6588 137.104 39.3504 138.894 39.7399C141.094 40.2173 149.123 36.517 150.525 34.0884C149.651 34.2564 149.036 34.2908 148.481 34.497C146.836 35.1118 145.236 35.8564 143.575 36.4254C141.972 36.9753 141.178 36.4407 140.984 34.7872C140.9 34.0502 140.969 33.2942 140.969 32.4617Z" fill="white"/>
<path d="M118.986 23.0451C118.804 22.8541 118.625 22.6632 118.443 22.4723C115.981 22.7739 113.518 23.0756 111.056 23.3773C111.014 23.6293 110.976 23.8775 110.934 24.1295C111.679 24.3205 112.424 24.5114 113.393 24.7558C113.154 25.3248 112.948 25.9014 112.675 26.4436C111.326 29.0899 109.931 31.7132 108.609 34.3748C108.191 35.2111 107.803 36.1123 107.651 37.0249C107.328 38.9227 108.058 39.6368 109.954 39.3695C111.379 39.1671 112.789 38.8464 114.198 38.56C114.559 38.4874 114.905 38.3461 115.262 38.2354C112.538 37.0631 112.409 36.8149 113.496 34.6039C114.221 33.1299 115.156 31.7591 115.851 30.2698C116.961 27.8908 117.949 25.4546 118.986 23.0451Z" fill="white"/>
<path d="M117.269 14.1897C116.475 14.9305 115.68 15.7248 114.825 16.4542C113.568 17.5234 113.815 18.5086 114.947 19.4212C116.813 20.9219 118.971 20.7348 121.202 20.5973C119.879 18.4436 118.644 16.4313 117.269 14.1897Z" fill="white"/>
<path d="M34.8682 13.5139C29.9549 10.7072 24.9884 7.6829 19.8282 5.0328C18.084 4.13544 15.8345 3.78413 13.8547 3.89105C9.98261 4.10107 8.21185 7.8471 10.1612 11.1998C11.0808 12.7845 12.0992 14.3081 13.0225 15.8929C14.7971 18.9363 13.2923 22.9229 10.5032 24.4274C7.40627 26.0923 3.26057 25.0345 1.51262 22.0675C0.524643 20.3873 0.372647 18.5735 1.33782 16.8284C2.2042 15.2551 3.96736 14.5105 6.46009 14.7205C6.0573 15.4575 5.79131 16.0723 5.41512 16.6069C4.43095 18.016 3.57597 19.5472 4.67414 21.132C5.18333 21.8651 6.3689 22.4608 7.25808 22.4761C7.90026 22.4875 9.02123 21.5024 9.11243 20.8456C9.31002 19.4174 9.12383 17.8862 8.84264 16.4465C8.43225 14.354 7.44047 12.3263 7.33407 10.2375C7.08708 5.18173 10.0814 1.63808 14.9795 0.389404C18.217 -0.43541 21.2835 0.106829 24.1905 1.43188C29.4001 3.81086 34.5414 6.34639 39.6675 8.90485C40.8492 9.49673 41.6928 9.77166 43.0456 9.04231C46.3363 7.26667 49.9614 7.16357 53.5219 8.10676C56.7328 8.95831 57.508 11.9864 55.2129 14.4265C52.6289 17.1721 49.2204 17.9587 45.6903 17.6341C43.1216 17.3974 40.6174 16.458 37.7029 15.7363C32.0107 22.6174 26.972 30.4111 25.1784 39.9041C24.6654 42.6268 24.4982 45.4372 24.3994 48.2172C24.312 50.6878 25.167 52.872 27.5344 54.0558C29.9967 55.2892 32.2994 54.4835 34.1956 52.8835C35.6662 51.6424 36.7909 49.9737 38.0107 48.4501C38.6909 47.5986 39.2647 46.6783 40.853 47.2511C40.0437 49.8019 39.7929 52.7269 38.2805 54.6553C37.1481 56.0987 34.4388 56.6868 32.3526 56.9006C22.6135 57.9011 19.1214 51.0887 18.6844 43.2874C18.2588 35.7342 20.9339 29.1968 25.623 23.4995C28.4729 20.0437 31.7029 16.9086 34.8682 13.5139ZM43.9994 10.9974C46.6897 12.7502 49.3838 13.659 52.325 13.3268C53.1647 13.2313 53.9133 12.3187 54.6999 11.7841C54.0653 11.1769 53.5371 10.2986 52.7847 10.0122C49.8702 8.90866 47.0203 9.31343 43.9994 10.9974Z" fill="black"/>
<path d="M61.4186 9.93206C60.4952 9.56548 59.9024 9.32873 58.8042 8.89341C61.3996 7.68292 63.6263 7.42707 65.8227 7.77456C66.993 7.95785 67.1602 9.19508 66.6663 10.2566C65.6175 12.4905 64.5041 14.69 63.4325 16.9086C62.5662 18.7033 61.7226 20.5095 60.8828 22.2814C64.0899 20.3339 67.2438 18.4246 70.4472 16.4809C71.7391 22.4379 68.0266 26.5505 59.0094 29.1204C62.0304 31.3772 62.5548 34.6383 63.3223 37.9185C65.0171 45.1547 69.634 46.3193 75.5846 45.3914C76.8918 45.1852 78.2826 43.9938 79.1641 42.8826C80.5967 41.0764 81.5809 40.5456 84.6474 41.3781C83.686 42.5619 83.0515 43.8869 82.0027 44.5437C76.6866 47.8735 70.9564 48.6945 65.0361 46.4415C60.8562 44.853 59.511 41.1872 58.9562 37.0898C58.6637 34.9285 58.2609 32.7901 56.6573 30.5791C55.7339 33.5309 53.093 35.5433 54.7422 38.8426C52.903 39.0373 51.1208 39.2282 49.2285 39.4306C48.9321 37.3113 49.0537 35.4287 50.0227 33.508C53.606 26.3902 57.0601 19.2074 60.5522 12.0437C60.8676 11.3831 61.107 10.6881 61.4186 9.93206ZM58.4623 26.7835C62.7904 25.8174 64.5725 24.2708 65.0703 21.2465C62.9499 23.0222 60.9208 24.7214 58.4623 26.7835Z" fill="black"/>
<path d="M91.4678 39.3695C91.3386 33.8975 95.2069 30.098 96.4532 25.3515C93.1359 28.6507 90.818 32.6068 89.488 37.0325C89.0662 38.434 88.8154 39.1404 87.3221 39.1328C86.5355 39.1289 85.7489 39.3886 84.9319 39.5337C84.4873 36.9447 85.1561 34.7376 86.3949 32.5724C87.8123 30.0942 89.0168 27.4937 90.3734 24.836C88.9104 24.4732 87.9567 24.2365 86.9991 23.9997C86.9839 23.8164 86.9649 23.6331 86.9497 23.4498C89.4652 22.4074 92.2582 22.793 94.9941 22.1515C95.0435 22.8656 95.0815 23.404 95.1233 23.9653C96.21 23.3696 97.1866 22.583 98.2924 22.2813C100.698 21.6246 101.294 22.2012 101.291 24.584C102.404 23.931 103.525 23.068 104.794 22.6021C105.641 22.289 107.063 22.1668 107.545 22.6479C108.047 23.1482 108.035 24.5954 107.724 25.4279C106.686 28.204 105.406 30.8923 104.228 33.6149C103.783 34.6459 103.361 35.6846 102.909 36.7691C103.715 37.1089 104.353 37.3838 104.995 37.655C104.999 37.8535 104.999 38.0521 105.003 38.2545C102.924 38.6554 100.846 39.0564 98.5926 39.4955C97.806 34.1037 101.291 30.2775 102.913 25.8212C99.7706 28.8608 97.2474 32.37 96.3734 36.6889C96.0353 38.3614 95.2677 38.7127 94.0327 38.9877C93.3069 39.1366 92.5621 39.2053 91.4678 39.3695Z" fill="black"/>
<path d="M130.394 24.3243C129.425 25.2446 128.183 26.0045 127.537 27.1118C126.051 29.6665 124.85 32.3891 123.539 35.0469C122.836 36.4712 122.947 37.6053 124.835 38.0865C124.805 38.243 124.771 38.3996 124.74 38.5561C122.65 38.896 120.557 39.232 118.277 39.6024C118.033 33.9662 121.974 29.8956 123.642 24.8092C122.783 24.6107 122.038 24.4388 120.853 24.1639C122.681 22.6479 124.573 22.877 126.306 22.5334C127.655 22.2661 128.407 22.5181 128.244 23.6789C130.026 23.194 131.838 22.6059 133.693 22.2202C135.293 21.888 136.022 22.9801 135.802 24.3396C135.543 25.9281 135.008 27.5128 134.327 28.9753C133.366 31.0373 132.135 32.9657 131.082 34.9896C130.717 35.6922 130.55 36.4941 130.288 37.254C131.002 37.6015 131.531 37.8573 132.587 38.3728C131.58 38.6592 131.094 38.8654 130.592 38.9227C129.84 39.0067 129.076 38.9762 128.32 39.0144C125.128 39.1747 124.877 38.9915 126.085 35.8793C127.317 32.7061 128.912 29.6779 130.315 26.5734C130.584 25.9777 130.698 25.3133 130.885 24.6832C130.717 24.5648 130.558 24.4465 130.394 24.3243Z" fill="black"/>
<path d="M75.094 35.0316C73.0724 36.5437 71.0699 38.1628 68.9419 39.5948C67.2738 40.7175 66.7076 40.2592 66.5442 38.2545C65.8754 30.0598 72.3048 23.7171 79.3461 22.2813C80.7938 21.9835 82.3556 22.2393 83.9288 22.2393C84.0732 24.8054 84.2137 27.2913 84.3695 30.0292C81.436 28.9753 80.5924 26.4856 79.5285 23.9921C75.151 26.6956 72.833 30.6326 71.5335 35.2951C71.6741 35.4287 71.8147 35.5624 71.9515 35.696C74.277 33.0956 76.6063 30.4951 78.9319 27.8947C79.1713 28.0092 79.4069 28.12 79.6463 28.2345C79.6463 30.7777 79.6463 33.317 79.6463 36.3795C80.8318 35.4898 81.531 34.9629 82.3214 34.371C82.2948 36.5132 79.7185 39.9003 77.9097 40.0607C77.3283 40.1103 76.3631 39.4802 76.1199 38.9227C75.588 37.6931 75.4094 36.3146 75.094 35.0316Z" fill="black"/>
<path d="M39.7667 35.1385C37.7603 36.6507 35.8034 38.243 33.7248 39.6597C32.0187 40.8244 31.3917 40.3012 31.1865 38.2316C30.2517 28.792 40.5457 20.6088 48.5825 22.3997C48.7383 24.9238 48.8941 27.4364 49.0575 30.1171C46.0859 29.1815 45.2804 26.604 44.2012 24.0723C39.8579 26.7262 37.5476 30.6899 36.4646 35.6197C37.6843 34.4435 38.9079 33.2751 40.1201 32.0951C41.3817 30.8655 42.628 29.6207 44.0074 28.2613C44.1328 30.8923 44.2582 33.4278 44.4026 36.4063C45.4894 35.6082 46.1505 35.1232 46.8725 34.5925C47.0359 36.7576 44.2962 40.1485 42.3658 40.118C41.8072 40.1103 40.9827 39.4917 40.7623 38.9533C40.2683 37.7466 40.0783 36.4101 39.7667 35.1385Z" fill="black"/>
<path d="M140.969 32.4617C140.969 33.2941 140.897 34.0502 140.984 34.791C141.174 36.4445 141.972 36.9791 143.575 36.4292C145.236 35.8602 146.832 35.1156 148.481 34.5008C149.036 34.2946 149.651 34.2602 150.525 34.0922C149.123 36.517 141.094 40.2172 138.894 39.7437C137.104 39.358 135.865 37.6626 135.736 35.5242C135.447 30.6669 137.879 27.3524 141.714 24.8474C145.095 22.6365 148.873 22.7892 152.661 23.0565C153.166 26.8331 146.976 31.9194 140.969 32.4617ZM141.755 29.7619C144.32 29.7734 146.703 27.6617 147.334 24.7787C144.658 25.6188 142.827 27.192 141.755 29.7619Z" fill="black"/>
<path d="M118.987 23.0451C117.946 25.4546 116.958 27.8908 115.848 30.2698C115.153 31.7552 114.218 33.1261 113.492 34.6039C112.406 36.8149 112.535 37.0631 115.259 38.2354C114.906 38.3461 114.556 38.4874 114.195 38.56C112.782 38.8464 111.376 39.1671 109.951 39.3695C108.055 39.6368 107.329 38.9189 107.648 37.0249C107.804 36.1123 108.191 35.2149 108.606 34.3748C109.928 31.7171 111.323 29.0899 112.672 26.4436C112.945 25.9052 113.15 25.3286 113.39 24.7558C112.425 24.5076 111.676 24.3167 110.931 24.1295C110.973 23.8775 111.011 23.6293 111.053 23.3773C113.515 23.0756 115.977 22.7739 118.44 22.4723C118.626 22.6632 118.808 22.8541 118.987 23.0451Z" fill="black"/>
<path d="M117.269 14.1897C118.644 16.4313 119.879 18.4398 121.202 20.5935C118.971 20.731 116.809 20.9181 114.947 19.4174C113.815 18.5047 113.568 17.5195 114.825 16.4503C115.677 15.7286 116.475 14.9305 117.269 14.1897Z" fill="black"/>
<path d="M43.9992 10.9974C47.0201 9.31342 49.8701 8.90865 52.7846 10.0122C53.537 10.2986 54.069 11.1769 54.6997 11.784C53.9094 12.3225 53.1608 13.2351 52.3248 13.3268C49.3799 13.6551 46.6895 12.7463 43.9992 10.9974Z" fill="white"/>
<path d="M58.4621 26.7835C60.9206 24.7214 62.9498 23.0221 65.0701 21.2465C64.5723 24.2708 62.7902 25.8173 58.4621 26.7835Z" fill="white"/>
<path d="M141.756 29.7619C142.831 27.192 144.659 25.6149 147.334 24.7787C146.7 27.6655 144.321 29.7772 141.756 29.7619Z" fill="white"/>
</g>
<defs>
<clipPath id="clip0_2_266">
<rect width="152" height="57" fill="white" transform="translate(0.691589 -7.62939e-05)"/>
</clipPath>
</defs>
</svg>
