<svg width="109" height="60" viewBox="0 0 109 60" fill="none" xmlns="http://www.w3.org/2000/svg">
<g opacity="0.4" clip-path="url(#clip0_2_208)">
<path d="M109 60C72.6618 60 36.3285 60 0 60C0 39.9948 0 19.9944 0 -4.57764e-05C36.3382 -4.57764e-05 72.6715 -4.57764e-05 109 -4.57764e-05C109 20.0052 109 40.0056 109 60ZM40.0696 15.3756C39.5767 15.504 39.1383 15.6876 38.6889 15.7212C37.1835 15.8352 35.6745 15.9252 34.1654 15.9696C30.107 16.0884 26.791 18.4632 25.4515 22.2564C24.8799 23.874 24.6231 25.5492 24.5977 27.258C24.5734 28.8372 24.6025 30.4188 24.5819 31.998C24.565 33.354 23.636 34.3344 22.408 34.338C21.0733 34.3416 20.1323 33.396 20.1008 32.0028C20.0863 31.3632 20.0984 30.7224 20.0996 30.0828C20.1032 24.6624 20.1081 19.242 20.1105 13.8216C20.1105 13.4532 20.0657 13.1316 20.624 13.0776C22.4092 12.9048 24.1992 12.7356 25.9674 12.45C27.6715 12.1752 29.4021 11.9052 31.0323 11.37C33.6035 10.5252 34.794 7.90675 34.4355 5.61595C33.4909 5.80315 32.5474 5.99515 31.6027 6.17755C24.6594 7.51555 17.6495 8.25355 10.5766 8.42395C9.18507 8.45755 7.78381 8.41195 6.40193 8.54875C4.42903 8.74315 2.88123 9.69955 2.25267 11.6328C1.6786 13.4016 1.93536 15.1128 3.42018 16.4124C4.9813 17.7804 6.82582 17.9748 8.78177 17.4864C8.71273 17.4276 8.63522 17.4144 8.55892 17.3928C7.38051 17.0604 6.84641 16.3308 6.99417 15.2532C7.12618 14.2884 7.79834 13.782 8.98766 13.7436C10.7426 13.6872 12.4975 13.626 14.2524 13.572C14.4437 13.566 14.6375 13.5876 14.8422 13.5972C14.8591 13.7772 14.8809 13.8936 14.8809 14.0112C14.8809 20.8116 14.8906 27.612 14.8712 34.4124C14.864 37.0476 13.9871 39.348 11.9924 41.166C11.7127 41.4204 11.4244 41.6664 11.1168 41.9376C11.3966 42.264 11.6557 42.5664 11.9089 42.8604C11.9743 42.8424 12.0227 42.8424 12.0506 42.8196C14.6605 40.6488 17.7561 39.6816 21.0612 39.198C22.3135 39.0144 23.5755 38.82 24.7914 38.4828C26.0994 38.1192 27.141 37.2744 28.0142 36.2208C29.6686 37.212 31.4223 37.6308 33.3116 37.3656C35.19 37.1016 36.7814 36.2664 38.0604 34.8792C39.6033 35.9208 41.2371 36.384 43.038 36.2304C44.8426 36.0768 46.3432 35.2848 47.6221 34.0368C48.7048 34.8336 49.8057 35.448 51.1331 35.6472C52.4593 35.8464 53.7116 35.5548 55.0135 35.2176C55.0995 37.356 54.5836 39.2243 53.2925 40.8432C52.0693 42.3792 50.5348 43.3619 48.4699 43.236C47.9418 43.2036 47.4211 43.062 46.8131 42.9564C47.0541 43.2468 47.2382 43.506 47.4574 43.7292C49.3964 45.6996 52.6373 46.182 55.3078 44.8944C57.7797 43.7028 59.0853 41.5932 59.7962 39.0864C60.1196 37.944 60.2237 36.7404 60.4381 35.5104C62.8058 36.2004 65.0282 35.784 66.9575 34.1652C70.1403 36.9804 73.4418 37.2636 76.9165 34.7976C77.0291 34.9116 77.126 35.0124 77.2241 35.1096C77.3391 35.2224 77.4518 35.3364 77.5717 35.4444C79.5567 37.2264 81.8602 37.7436 84.4253 37.0716C86.5908 36.504 88.0611 35.07 89.0942 33.1644C89.9686 31.554 90.3634 29.8056 90.4567 27.9888C90.5039 27.0708 90.5003 26.1504 90.5524 25.2324C90.5863 24.63 90.912 24.1788 91.4437 23.8908C92.7493 23.184 94.1518 24.084 94.1578 25.662C94.1687 28.5024 94.1566 31.3428 94.1348 34.182C94.1227 35.7468 93.4094 36.4788 91.8313 36.6072C91.7344 36.6156 91.6375 36.6324 91.514 36.6492C91.5007 36.8016 91.4825 36.9372 91.4789 37.074C91.4728 37.29 91.4776 37.5072 91.4776 37.7772C95.0359 38.16 98.444 38.9604 101.67 40.4136C102.18 39.3264 102.18 39.3264 101.339 38.6244C100.085 37.578 99.4819 36.198 99.4577 34.6188C99.4056 31.1196 99.3898 27.618 99.4431 24.1188C99.4758 22.02 101.739 20.7468 103.641 21.6768C103.994 21.8496 104.323 22.0716 104.685 22.284C105.474 20.9892 106.253 19.7124 107.022 18.45C105.054 16.3704 102.217 15.8496 99.6841 17.0916C99.3862 17.238 99.2421 17.1816 99.018 16.9728C97.8372 15.8712 96.1731 15.7692 94.8712 16.7424C94.4776 17.0376 94.1736 17.4528 93.8369 17.8212C93.5135 18.1764 93.235 18.5796 92.8777 18.894C91.9463 19.716 90.7716 19.8012 89.7688 19.0644C88.8798 18.4104 88.0781 17.6412 87.2097 16.9596C84.7959 15.0636 82.1618 14.5224 79.3023 15.8628C77.2301 16.8336 76.019 18.5712 75.233 20.64C74.5984 22.3116 74.4361 24.0576 74.4203 25.824C74.4082 27.1236 74.4506 28.4256 74.3913 29.7228C74.3295 31.0632 73.1196 31.854 71.8225 31.47C70.9566 31.2144 70.4612 30.4632 70.4612 29.376C70.4588 21.2748 70.46 13.1748 70.46 5.07355C70.46 4.83955 70.46 4.60555 70.46 4.30915C68.1032 4.30915 65.8142 4.30915 63.5082 4.30915C63.5082 4.70875 63.5082 5.09515 63.5082 5.47675C64.8417 5.63875 65.2002 6.04435 65.2014 7.36075C65.2026 12.3216 65.2014 17.2812 65.2014 22.242C65.2014 24.2616 65.1941 26.2824 65.205 28.302C65.2086 28.9668 65.0633 29.5704 64.614 30.078C63.9406 30.84 62.853 31.1256 61.9181 30.792C60.9443 30.444 60.3 29.5548 60.2976 28.4856C60.2891 24.4452 60.294 20.4048 60.294 16.3644C60.294 16.1304 60.294 15.8964 60.294 15.6552C58.5051 15.6552 56.7866 15.6552 55.0244 15.6552C55.0244 15.9444 55.0244 16.182 55.0244 16.4196C55.0244 20.3004 55.0244 24.18 55.0232 28.0608C55.0232 28.32 55.0268 28.5816 55.0002 28.8396C54.896 29.8272 54.3062 30.4284 53.3943 30.7404C52.5852 31.0176 51.6854 30.7392 51.0956 30.0768C50.6366 29.5632 50.5227 28.9464 50.5239 28.2924C50.53 26.052 50.5433 23.8116 50.5409 21.5724C50.5397 20.3928 50.5893 19.2072 50.4803 18.0372C50.318 16.302 48.5692 14.9868 46.7743 15.1428C44.9746 15.2988 43.6024 16.818 43.669 18.5784C44.7554 18.2028 45.2834 18.4692 45.2871 19.4364C45.298 22.5372 45.2968 25.6368 45.2859 28.7376C45.2834 29.6052 44.9407 30.342 44.2237 30.858C43.365 31.4748 42.4228 31.5564 41.483 31.0752C40.5407 30.5928 40.0793 29.7744 40.0769 28.7292C40.0672 25.2684 40.0696 21.8088 40.0684 18.348C40.0696 17.37 40.0696 16.3932 40.0696 15.3756ZM13.9254 55.1352C13.9508 55.1988 13.975 55.2624 14.0004 55.326C14.6908 54.8484 15.3545 55.128 16.023 55.3092C16.4106 55.4148 16.8066 55.4916 17.1905 55.608C17.784 55.7868 18.0795 55.3692 18.3968 55.1652C17.5066 54.9552 16.6225 54.7452 15.7372 54.5364C17.9632 53.7408 18.7359 52.7736 18.4937 50.994C18.3084 49.6296 17.3528 48.9072 15.6742 48.8616C14.1652 48.822 13.0824 49.626 12.8136 50.9856C12.4841 52.6524 13.1151 53.6664 14.9512 54.3552C14.5963 54.6264 14.2608 54.8808 13.9254 55.1352ZM93.2955 51.4056C93.7339 52.1112 94.1494 52.7676 94.5514 53.4324C95.0201 54.2076 95.4125 54.3432 96.2979 54.0528C95.7044 53.226 95.1001 52.3836 94.4764 51.5148C94.7258 51.3456 94.8966 51.246 95.048 51.1224C95.4973 50.7552 95.7601 50.2992 95.5918 49.7064C95.4283 49.1316 94.9681 48.9588 94.4231 48.9576C93.396 48.9552 92.3702 48.9636 91.3432 48.9756C91.3057 48.9756 91.2693 49.0488 91.1773 49.1448C92.0614 49.23 91.8834 49.8696 91.8931 50.388C91.9076 51.186 91.9027 51.9864 91.8676 52.7831C91.8458 53.274 92.0469 53.904 91.2548 54.0528C92.0335 54.0528 92.8111 54.0528 93.5898 54.0528C93.6383 53.9988 93.6867 53.9448 93.7339 53.892C92.8898 53.9388 93.0121 53.424 93.0061 52.9896C92.9988 52.5107 92.9988 52.0308 92.9976 51.552C92.9964 50.82 92.9976 50.088 92.9976 49.374C93.9556 49.2372 94.4146 49.4724 94.4982 50.0736C94.6011 50.826 94.1942 51.2892 93.2955 51.4056ZM64.6128 50.4612C64.6576 50.274 64.6879 50.088 64.7472 49.9092C64.9301 49.3584 64.6891 49.0464 64.155 49.014C63.3181 48.9636 62.4594 48.8664 61.6431 48.996C60.3908 49.1952 59.6266 50.1888 59.5939 51.3924C59.5552 52.8072 60.2382 53.7816 61.5123 54.1656C62.5902 54.4908 63.6281 54.2976 64.6491 53.9472C64.7678 53.9064 64.8732 53.6976 64.8998 53.5512C64.9894 53.076 65.0391 52.5948 65.0984 52.1592C64.4711 52.1592 63.7335 52.1592 62.9959 52.1592C63.1267 52.3344 63.2672 52.3944 63.4126 52.4028C63.8304 52.4292 63.8256 52.7304 63.8074 53.0088C63.7892 53.2992 63.9394 53.6592 63.4671 53.79C62.3916 54.0876 61.304 53.6352 60.971 52.5792C60.7869 51.996 60.7663 51.3132 60.8632 50.7048C60.9976 49.8612 61.7219 49.3524 62.5902 49.2924C63.6512 49.2204 63.9866 49.4232 64.4481 50.406C64.4565 50.4312 64.5159 50.4324 64.6128 50.4612ZM70.5 48.9672C70.7676 49.2576 71.1504 49.4796 71.1649 49.722C71.2206 50.676 71.2 51.6396 71.131 52.5936C71.0765 53.3556 70.5981 53.6724 69.7334 53.6472C68.8783 53.622 68.4338 53.2584 68.4011 52.5012C68.3709 51.7824 68.3793 51.0624 68.3866 50.3436C68.3914 49.8336 68.2473 49.242 68.9958 49.0728C69.0055 49.0704 68.9897 48.9624 68.9885 48.9324C68.1965 48.9324 67.4153 48.9324 66.6341 48.9324C67.5303 49.278 67.2203 50.016 67.2457 50.61C67.276 51.288 67.2469 51.9684 67.259 52.6476C67.2712 53.3076 67.5667 53.8284 68.2001 54.0492C68.6482 54.2064 69.1435 54.3 69.6183 54.3036C70.9505 54.3132 71.6602 53.586 71.6881 52.2612C71.6978 51.8016 71.659 51.3384 71.7063 50.8836C71.7753 50.2128 71.4628 49.4196 72.2694 48.882C71.6905 48.9084 71.1128 48.9372 70.5 48.9672ZM19.9337 48.924C19.8961 48.9804 19.8574 49.0368 19.8198 49.0944C20.693 49.1772 20.5719 49.7664 20.5756 50.2884C20.5816 51.108 20.5731 51.9288 20.584 52.7484C20.5925 53.4024 20.9328 53.8644 21.5408 54.0672C21.9744 54.2112 22.4467 54.3 22.9033 54.3072C24.181 54.3252 24.8908 53.6532 24.9731 52.3908C25.0143 51.7524 24.9961 51.1104 25.0361 50.4732C25.07 49.9296 24.8181 49.2696 25.6998 49.0224C25.6574 48.972 25.615 48.9228 25.5714 48.8724C24.9901 48.9096 24.4087 48.9456 23.7341 48.9888C24.4802 49.548 24.4814 49.548 24.4802 50.5284C24.4802 51.1488 24.4911 51.7692 24.4705 52.3884C24.4414 53.25 24.0079 53.6448 23.1237 53.6496C22.1597 53.6556 21.7019 53.2536 21.6704 52.3584C21.6547 51.8988 21.6268 51.4344 21.6728 50.9796C21.7419 50.2788 21.3119 49.4232 22.2578 48.9276C21.4827 48.924 20.7076 48.924 19.9337 48.924ZM28.0384 54.1259C27.1798 53.8871 27.4886 53.3808 27.6836 52.9032C27.9173 52.3307 28.4175 52.6152 28.7881 52.602C29.8745 52.5612 29.9811 52.6824 30.101 53.7696C29.9132 53.8716 29.7279 53.9724 29.4118 54.1428C30.388 54.1428 31.1716 54.1428 31.954 54.1428C31.1716 53.6856 31.1013 52.8528 30.784 52.1832C30.3226 51.2099 29.9375 50.2032 29.4918 49.2216C29.4264 49.0776 29.2217 48.93 29.0667 48.9132C28.9589 48.9011 28.7821 49.0884 28.713 49.224C27.8895 50.8512 27.64 52.7508 26.3526 54.1248C26.8988 54.126 27.468 54.1259 28.0384 54.1259ZM89.7082 54.168C89.7373 54.1212 89.7676 54.0756 89.7966 54.0288C88.927 53.7552 88.8822 52.9464 88.5867 52.314C88.1217 51.3204 87.7196 50.2968 87.2642 49.2972C87.1879 49.1304 86.9759 48.918 86.8294 48.9192C86.6865 48.9216 86.4867 49.146 86.414 49.3152C85.9804 50.3244 85.5953 51.3528 85.1569 52.3596C84.8844 52.986 84.7984 53.7408 83.8985 54.0924C84.6252 54.0924 85.1811 54.0924 85.737 54.0924C85.7358 54.054 85.7346 54.0144 85.7346 53.976C85.5602 53.9016 85.3857 53.8284 85.221 53.7588C85.3785 52.6632 85.4439 52.59 86.2251 52.5864C87.6869 52.5804 87.6869 52.5804 87.8613 53.7576C87.6796 53.8644 87.4979 53.9724 87.3163 54.0792C87.3381 54.1092 87.3587 54.1392 87.3805 54.168C88.158 54.168 88.9331 54.168 89.7082 54.168ZM101.074 50.2752C101.381 49.7112 101.358 49.188 101.008 49.0728C100.198 48.8076 99.3814 48.7812 98.5941 49.1532C98.0625 49.4039 97.7488 50.0304 97.8118 50.658C97.8735 51.2736 98.1715 51.7056 98.8073 51.8604C99.2372 51.9648 99.6757 52.0464 100.092 52.1868C100.678 52.3848 100.864 53.0244 100.492 53.4995C100.115 53.9808 99.5776 53.9976 99.058 53.8752C98.6002 53.7672 98.1799 53.544 98.2005 52.9512C98.2029 52.8624 98.1182 52.7712 98.0746 52.6812C98.0261 52.6848 97.9789 52.6884 97.9304 52.692C97.8881 53.1204 97.8469 53.5476 97.8021 53.9976C98.9127 54.4632 99.976 54.5784 100.99 53.8644C101.601 53.4348 101.742 52.8156 101.606 52.11C101.478 51.4452 100.996 51.222 100.401 51.1212C100.045 51.0612 99.6902 50.9855 99.3353 50.9196C98.8763 50.8332 98.622 50.4948 98.7334 50.1084C98.8218 49.8024 99.1331 49.4328 99.4274 49.3344C100.194 49.0764 100.68 49.4028 100.935 50.184C100.949 50.2248 101.026 50.2452 101.074 50.2752ZM48.327 49.0092C46.6544 49.0092 45.0582 49.0092 43.428 49.0092C43.4583 49.416 43.4849 49.776 43.5116 50.1372C43.5697 50.1468 43.6279 50.1564 43.686 50.166C43.7587 49.9464 43.8301 49.7268 43.9197 49.4544C44.3497 49.4544 44.7966 49.4544 45.3052 49.4544C45.3052 50.5584 45.3113 51.612 45.3028 52.6668C45.298 53.2284 45.5123 53.9076 44.6258 54.0996C45.4445 54.0996 46.2632 54.0996 47.0819 54.0996C47.1098 54.0492 47.1389 53.9988 47.1667 53.9484C46.4461 53.9364 46.4352 53.4924 46.4437 53.0076C46.4582 52.17 46.4461 51.3312 46.4461 50.4924C46.4461 50.1456 46.4461 49.7976 46.4461 49.4628C47.375 49.3932 47.375 49.3932 48.2688 50.22C48.2882 49.7928 48.3064 49.4316 48.327 49.0092ZM54.9493 49.0536C54.8985 49.0056 54.8476 48.9564 54.7967 48.9084C53.645 49.2504 53.7285 50.6748 52.8626 51.27C52.5138 50.664 52.1844 50.0484 51.8138 49.458C51.3705 48.7512 50.5796 48.6876 49.939 49.2768C50.1448 49.4148 50.4113 49.5096 50.5445 49.698C51.0386 50.4012 51.5873 51.0924 51.9191 51.8712C52.1286 52.3644 52.0293 53.0076 51.976 53.574C51.9627 53.718 51.5958 53.8284 51.3959 53.9616C51.3778 53.9736 51.3935 54.036 51.3935 54.0912C52.2086 54.0912 53.0237 54.0912 53.8872 54.0912C53.6026 53.856 53.2283 53.6964 53.2114 53.5068C53.1387 52.7028 53.0188 51.8772 53.5565 51.1392C54.0446 50.4612 54.4867 49.7496 54.9493 49.0536ZM79.9394 49.4472C79.9394 50.622 79.9261 51.7752 79.9454 52.9272C79.9539 53.4552 79.937 53.9268 79.26 54.096C80.0799 54.096 80.8998 54.096 81.7246 54.096C81.4775 53.856 81.1287 53.6748 81.1214 53.4816C81.073 52.1496 81.096 50.814 81.096 49.4328C81.5114 49.4328 81.9062 49.3416 82.2187 49.4616C82.4706 49.5588 82.6208 49.9116 82.8884 50.238C82.8884 49.7688 82.8884 49.3932 82.8884 49.0116C81.2789 49.0116 79.6814 49.0116 78.0501 49.0116C78.0864 49.4196 78.1179 49.7796 78.1494 50.1396C78.1942 50.1744 78.2378 50.2104 78.2826 50.2452C78.4534 49.14 79.1945 49.4112 79.9394 49.4472ZM35.2082 53.7444C35.2082 52.5156 35.2046 51.4008 35.2106 50.2848C35.2131 49.8132 35.0992 49.2696 35.8029 49.1484C35.8089 49.1472 35.8041 49.0752 35.8041 49.0296C35.0072 49.0296 34.2187 49.0296 33.4315 49.0296C33.3879 49.0776 33.3431 49.1256 33.2995 49.1724C34.2357 49.2408 34.0625 49.8648 34.0746 50.382C34.0891 51.0408 34.0988 51.7008 34.0686 52.3584C34.0395 52.9812 34.2466 53.658 33.5986 54.2232C34.8255 54.2232 35.93 54.234 37.0346 54.2112C37.1944 54.2076 37.4585 54.0695 37.4875 53.9496C37.5735 53.5956 37.5662 53.2188 37.6002 52.7831C37.0406 52.8983 37.3591 53.7528 36.6785 53.6772C36.2292 53.628 35.7653 53.7144 35.2082 53.7444ZM39.395 48.9804C39.3623 49.032 39.3284 49.0836 39.2957 49.1352C40.112 49.1952 39.9945 49.7448 39.9957 50.2284C39.9969 51.108 39.9848 51.9888 39.9909 52.8684C39.9945 53.3424 40.0418 53.8248 39.4011 53.9508C39.3962 53.952 39.4047 54.0228 39.4071 54.0672C40.1847 54.0672 40.961 54.0672 41.7167 54.0672C41.5048 53.8524 41.1669 53.67 41.1608 53.4768C41.1148 52.1028 41.1366 50.7264 41.1366 49.3932C41.4067 49.2744 41.5992 49.1904 41.7906 49.1064C41.7724 49.0644 41.7555 49.0224 41.7373 48.9804C40.9561 48.9804 40.175 48.9804 39.395 48.9804ZM73.9056 53.9112C73.9517 53.9592 73.9977 54.006 74.0437 54.054C74.8224 54.054 75.6024 54.054 76.3388 54.054C76.1341 53.8428 75.7962 53.6568 75.7901 53.46C75.7429 52.0908 75.7659 50.7192 75.7659 49.3872C76.0469 49.2684 76.2382 49.188 76.4284 49.1076C76.4114 49.0668 76.3933 49.026 76.3763 48.9852C75.5915 48.9852 74.8055 48.9852 74.0207 48.9852C74.7982 49.2456 74.6299 49.8576 74.6323 50.3844C74.6359 51.2016 74.6323 52.0188 74.625 52.8372C74.6202 53.3136 74.7619 53.8716 73.9056 53.9112ZM104.543 39.252C103.815 39.2508 103.278 39.8088 103.287 40.5576C103.297 41.2848 103.822 41.8224 104.525 41.8224C105.19 41.8224 105.788 41.2368 105.809 40.5648C105.831 39.8556 105.249 39.2532 104.543 39.252Z" fill="white"/>
<path d="M40.07 15.3756C40.07 16.3932 40.07 17.37 40.07 18.348C40.0712 21.8088 40.0676 25.2684 40.0785 28.7292C40.0821 29.7744 40.5424 30.5928 41.4846 31.0752C42.4244 31.5564 43.3667 31.4748 44.2253 30.858C44.9423 30.342 45.2851 29.6052 45.2875 28.7376C45.2984 25.6368 45.2996 22.5372 45.2887 19.4364C45.2851 18.4692 44.757 18.2028 43.6707 18.5784C43.6028 16.818 44.9762 15.2988 46.7759 15.1428C48.5708 14.9868 50.3197 16.302 50.4819 18.0372C50.5909 19.2072 50.5413 20.394 50.5425 21.5724C50.5449 23.8128 50.5316 26.0532 50.5255 28.2924C50.5243 28.9464 50.6382 29.5632 51.0972 30.0768C51.6882 30.738 52.5869 31.0164 53.3959 30.7404C54.3078 30.4284 54.8977 29.826 55.0018 28.8396C55.0297 28.5816 55.0248 28.32 55.0248 28.0608C55.026 24.18 55.026 20.3004 55.026 16.4196C55.026 16.182 55.026 15.9444 55.026 15.6552C56.7882 15.6552 58.5068 15.6552 60.2956 15.6552C60.2956 15.8964 60.2956 16.1304 60.2956 16.3644C60.2956 20.4048 60.2907 24.4452 60.2992 28.4856C60.3016 29.5548 60.9459 30.444 61.9197 30.792C62.8547 31.1256 63.9422 30.84 64.6156 30.078C65.0661 29.5692 65.2103 28.9668 65.2066 28.302C65.1957 26.2824 65.203 24.2616 65.203 22.242C65.203 17.2812 65.203 12.3216 65.203 7.36076C65.203 6.04436 64.8445 5.63876 63.5099 5.47676C63.5099 5.09516 63.5099 4.70756 63.5099 4.30916C65.8158 4.30916 68.1048 4.30916 70.4616 4.30916C70.4616 4.60556 70.4616 4.83956 70.4616 5.07356C70.4616 13.1748 70.4604 21.2748 70.4629 29.376C70.4629 30.4632 70.9582 31.2144 71.8241 31.47C73.1212 31.8528 74.3324 31.0632 74.3929 29.7228C74.4523 28.4256 74.4099 27.1236 74.422 25.824C74.4377 24.0576 74.6 22.3116 75.2346 20.64C76.0194 18.5712 77.2318 16.8348 79.304 15.8628C82.1634 14.5224 84.7976 15.0636 87.2113 16.9596C88.0797 17.6424 88.8814 18.4116 89.7704 19.0644C90.7732 19.8012 91.9468 19.716 92.8793 18.894C93.2366 18.5784 93.5151 18.1752 93.8385 17.8212C94.1752 17.4528 94.478 17.0376 94.8728 16.7424C96.1735 15.7692 97.8388 15.8724 99.0197 16.9728C99.2425 17.1816 99.3866 17.238 99.6858 17.0916C102.218 15.8496 105.056 16.3716 107.024 18.45C106.254 19.7124 105.476 20.9892 104.686 22.284C104.324 22.0716 103.996 21.8496 103.642 21.6768C101.74 20.7468 99.4774 22.02 99.4447 24.1188C99.3902 27.618 99.4072 31.1196 99.4593 34.6188C99.4823 36.198 100.087 37.578 101.34 38.6244C102.182 39.3276 102.182 39.3276 101.672 40.4136C98.4456 38.9604 95.0375 38.16 91.4793 37.7772C91.4793 37.5072 91.4756 37.2912 91.4805 37.074C91.4841 36.9384 91.5023 36.8028 91.5156 36.6492C91.6391 36.6324 91.736 36.6156 91.8329 36.6072C93.411 36.4788 94.1243 35.7468 94.1365 34.182C94.1582 31.3416 94.1704 28.5012 94.1595 25.662C94.1534 24.084 92.7509 23.184 91.4454 23.8908C90.9137 24.1788 90.5879 24.6312 90.554 25.2324C90.5019 26.1504 90.5055 27.0708 90.4583 27.9888C90.3651 29.8056 89.9702 31.554 89.0958 33.1644C88.0615 35.0688 86.5924 36.504 84.427 37.0716C81.8618 37.7436 79.5571 37.2264 77.5733 35.4444C77.4534 35.3376 77.3408 35.2224 77.2257 35.1096C77.1264 35.0124 77.0295 34.9116 76.9181 34.7976C73.4434 37.2636 70.1419 36.9792 66.9591 34.1652C65.0298 35.784 62.8086 36.2004 60.4397 35.5104C60.2265 36.7416 60.1224 37.944 59.7978 39.0864C59.0869 41.5932 57.7813 43.7028 55.3094 44.8944C52.6377 46.182 49.398 45.7008 47.459 43.7292C47.2386 43.506 47.0545 43.2468 46.8147 42.9564C47.4227 43.062 47.9435 43.2048 48.4715 43.236C50.5364 43.362 52.0709 42.378 53.2941 40.8432C54.584 39.2244 55.1011 37.3572 55.0151 35.2176C53.7132 35.5548 52.4597 35.8476 51.1347 35.6472C49.8074 35.4468 48.7065 34.8324 47.6237 34.0368C46.3448 35.2848 44.8442 36.0768 43.0397 36.2304C41.2387 36.3828 39.605 35.9208 38.062 34.8792C36.7843 36.2652 35.1917 37.1004 33.3132 37.3656C31.4239 37.6308 29.6702 37.212 28.0158 36.2208C27.1426 37.2756 26.1011 38.1204 24.7931 38.4828C23.5771 38.82 22.3151 39.0144 21.0628 39.198C17.7577 39.6816 14.6621 40.6488 12.0522 42.8196C12.0243 42.8424 11.9771 42.8424 11.9105 42.8604C11.6586 42.5664 11.3994 42.264 11.1184 41.9376C11.426 41.6676 11.7143 41.4216 11.994 41.166C13.9875 39.348 14.8644 37.0476 14.8729 34.4124C14.8934 27.612 14.8825 20.8116 14.8825 14.0112C14.8825 13.8936 14.8607 13.7772 14.8438 13.5972C14.6391 13.5876 14.4465 13.566 14.254 13.572C12.4991 13.6272 10.7442 13.6872 8.98928 13.7436C7.79996 13.782 7.1278 14.2884 6.99579 15.2532C6.84803 16.3296 7.38213 17.0604 8.56054 17.3928C8.63684 17.4144 8.71435 17.4276 8.78339 17.4864C6.82744 17.9748 4.98171 17.7792 3.4218 16.4124C1.93819 15.1116 1.68022 13.4016 2.25429 11.6328C2.88164 9.69956 4.43065 8.74316 6.40355 8.54876C7.78543 8.41196 9.18548 8.45756 10.5783 8.42396C17.6499 8.25356 24.6598 7.51556 31.6044 6.17516C32.549 5.99276 33.4913 5.80076 34.4371 5.61356C34.7956 7.90436 33.6051 10.5228 31.0339 11.3676C29.4026 11.9028 27.6731 12.1728 25.9691 12.4476C24.1996 12.7332 22.4108 12.9024 20.6256 13.0752C20.0673 13.1292 20.1121 13.4508 20.1121 13.8192C20.1097 19.2396 20.1049 24.66 20.1012 30.0804C20.1012 30.72 20.0879 31.3608 20.1024 32.0004C20.1339 33.3948 21.075 34.3392 22.4096 34.3356C23.6377 34.3332 24.5666 33.3528 24.5835 31.9956C24.6041 30.4152 24.5751 28.8348 24.5993 27.2556C24.6247 25.548 24.8815 23.8716 25.4531 22.254C26.7926 18.4608 30.1098 16.0848 34.1671 15.9672C35.6761 15.9228 37.1852 15.8328 38.6906 15.7188C39.1399 15.6864 39.5783 15.5028 40.07 15.3756Z" fill="black"/>
<path d="M79.5966 26.1792C79.6293 26.1828 79.6608 26.1852 79.6935 26.1888C79.6935 26.6688 79.6669 27.15 79.6984 27.6264C79.7783 28.8252 79.8873 30.024 80.5898 31.0632C81.5344 32.46 83.1985 32.5416 84.2219 31.2036C84.5404 30.7872 84.779 30.2652 84.9037 29.7564C85.4088 27.6912 85.3785 25.59 85.0563 23.5092C84.9389 22.746 84.647 21.9432 84.2134 21.3072C83.3196 19.998 81.6349 20.0112 80.7048 21.2964C80.3403 21.7992 80.0714 22.428 79.9539 23.0352C79.7541 24.0672 79.7081 25.1292 79.5966 26.1792Z" fill="black"/>
<path d="M34.8291 20.9244C32.7993 20.8764 31.0904 22.0656 30.3904 23.9039C29.7267 25.6475 29.6226 27.4607 29.8333 29.2763C29.9229 30.0455 30.2039 30.8471 30.6036 31.5143C31.4816 32.9771 33.5369 32.9435 34.3895 31.4663C34.685 30.9551 34.8388 30.2963 34.8473 29.7023C34.8848 27.2051 34.8424 24.7067 34.8291 22.2084C34.8279 21.7932 34.8291 21.378 34.8291 20.9244Z" fill="black"/>
<path d="M13.9256 55.1352C14.2611 54.8808 14.5965 54.6264 14.9526 54.3564C13.1166 53.6664 12.4856 52.6536 12.815 50.9868C13.0839 49.6272 14.1666 48.822 15.6756 48.8628C17.353 48.9072 18.3086 49.6296 18.4951 50.9952C18.7373 52.7748 17.9646 53.7432 15.7386 54.5376C16.6239 54.7464 17.5093 54.9564 18.3982 55.1664C18.0809 55.3692 17.7842 55.788 17.1919 55.6092C16.808 55.4928 16.412 55.416 16.0244 55.3104C15.3559 55.1292 14.691 54.8496 14.0019 55.3272C13.9752 55.2624 13.9498 55.1988 13.9256 55.1352ZM17.4063 51.6408C17.3034 51.18 17.2501 50.676 17.0733 50.22C16.8395 49.62 16.3757 49.2672 15.6744 49.278C14.9562 49.2888 14.4015 49.56 14.1678 50.2476C13.842 51.2088 13.8626 52.1796 14.3361 53.0964C14.6413 53.6868 15.1742 53.9376 15.8379 53.8992C16.4943 53.862 16.9376 53.5116 17.1387 52.908C17.2682 52.5168 17.3131 52.0956 17.4063 51.6408Z" fill="black"/>
<path d="M93.296 51.4055C94.1946 51.2891 94.6028 50.8259 94.4986 50.0735C94.415 49.4723 93.9572 49.2371 92.998 49.3739C92.998 50.0879 92.9968 50.8199 92.998 51.5519C92.9992 52.0307 92.9992 52.5107 93.0065 52.9895C93.0126 53.4239 92.8902 53.9387 93.7344 53.8919C93.6859 53.9459 93.6375 53.9999 93.5903 54.0527C92.8115 54.0527 92.034 54.0527 91.2552 54.0527C92.0473 53.9039 91.8463 53.2739 91.8681 52.7831C91.9032 51.9863 91.908 51.1859 91.8935 50.3879C91.8838 49.8695 92.0618 49.2299 91.1777 49.1447C91.2686 49.0487 91.3061 48.9755 91.3437 48.9755C92.3707 48.9647 93.3965 48.9551 94.4235 48.9575C94.9685 48.9587 95.4287 49.1303 95.5922 49.7063C95.7606 50.2991 95.4978 50.7539 95.0484 51.1223C94.8971 51.2459 94.7263 51.3455 94.4768 51.5147C95.1005 52.3835 95.7049 53.2259 96.2983 54.0527C95.413 54.3431 95.0206 54.2075 94.5519 53.4323C94.1498 52.7675 93.7332 52.1111 93.296 51.4055Z" fill="black"/>
<path d="M64.6123 50.4612C64.5154 50.4324 64.4561 50.4312 64.4464 50.4084C63.985 49.4256 63.6495 49.2228 62.5886 49.2948C61.7214 49.3536 60.996 49.8624 60.8615 50.7072C60.7646 51.3156 60.7852 51.9984 60.9693 52.5816C61.3024 53.6376 62.39 54.09 63.4654 53.7924C63.9365 53.6616 63.7876 53.3028 63.8057 53.0112C63.8227 52.7316 63.8288 52.4316 63.4109 52.4052C63.2668 52.3956 63.1263 52.3368 62.9943 52.1616C63.7319 52.1616 64.4694 52.1616 65.0968 52.1616C65.0374 52.5972 64.9878 53.0784 64.8982 53.5536C64.8703 53.7 64.7649 53.9088 64.6475 53.9496C63.6253 54.3 62.5874 54.4932 61.5107 54.168C60.2378 53.784 59.5547 52.8084 59.5923 51.3948C59.625 50.1912 60.388 49.1976 61.6415 48.9984C62.4578 48.8688 63.3165 48.966 64.1533 49.0164C64.6886 49.0488 64.9296 49.3608 64.7456 49.9116C64.6874 50.088 64.6559 50.274 64.6123 50.4612Z" fill="black"/>
<path d="M70.5 48.9671C71.1116 48.9371 71.6905 48.9095 72.2682 48.8807C71.4628 49.4184 71.7753 50.2116 71.705 50.8824C71.6578 51.3372 71.6966 51.8004 71.6869 52.26C71.6602 53.5848 70.9505 54.312 69.6171 54.3024C69.1423 54.2988 68.647 54.2052 68.1989 54.048C67.5667 53.8272 67.27 53.3064 67.2578 52.6464C67.2457 51.9672 67.2736 51.2868 67.2445 50.6088C67.2179 50.0148 67.5279 49.2768 66.6329 48.9312C67.4141 48.9312 68.1952 48.9312 68.9873 48.9312C68.9897 48.9612 69.0043 49.0703 68.9946 49.0715C68.2461 49.2407 68.3902 49.8324 68.3854 50.3424C68.3793 51.0612 68.3696 51.7824 68.3999 52.5C68.4326 53.2572 68.8771 53.622 69.7321 53.646C70.5969 53.6712 71.0741 53.3544 71.1298 52.5924C71.1988 51.6384 71.2194 50.6748 71.1637 49.7208C71.1504 49.4796 70.7676 49.2575 70.5 48.9671Z" fill="black"/>
<path d="M19.9342 48.9239C20.7093 48.9239 21.4832 48.9239 22.2583 48.9239C21.3136 49.4195 21.7436 50.2763 21.6733 50.9759C21.6285 51.4319 21.6551 51.8951 21.6709 52.3547C21.7024 53.2511 22.1602 53.6519 23.1242 53.6459C24.0083 53.6411 24.4419 53.2463 24.471 52.3847C24.4916 51.7655 24.4795 51.1451 24.4807 50.5247C24.4819 49.5455 24.4807 49.5455 23.7346 48.9851C24.4092 48.9419 24.9905 48.9059 25.5719 48.8687C25.6143 48.9191 25.6567 48.9683 25.7003 49.0187C24.8186 49.2659 25.0705 49.9259 25.0366 50.4695C24.9966 51.1079 25.0148 51.7499 24.9736 52.3871C24.8912 53.6495 24.1815 54.3215 22.9038 54.3035C22.4472 54.2975 21.9749 54.2087 21.5413 54.0635C20.9345 53.8607 20.5942 53.3987 20.5845 52.7447C20.5736 51.9251 20.5809 51.1043 20.576 50.2847C20.5724 49.7627 20.6935 49.1735 19.8203 49.0907C19.8579 49.0379 19.8954 48.9815 19.9342 48.9239Z" fill="black"/>
<path d="M28.0382 54.1259C27.4689 54.1259 26.8997 54.1259 26.3535 54.1259C27.6409 52.7507 27.8904 50.8511 28.714 49.2251C28.783 49.0883 28.9598 48.9023 29.0676 48.9143C29.2226 48.9311 29.4273 49.0787 29.4927 49.2227C29.9372 50.2031 30.3235 51.2111 30.785 52.1843C31.1023 52.8539 31.1725 53.6867 31.9549 54.1439C31.1725 54.1439 30.3889 54.1439 29.4128 54.1439C29.7289 53.9723 29.9142 53.8715 30.1019 53.7707C29.982 52.6835 29.8754 52.5623 28.7891 52.6031C28.4185 52.6175 27.9183 52.3319 27.6845 52.9043C27.4883 53.3807 27.1783 53.8871 28.0382 54.1259ZM28.7673 50.2223C28.4826 50.9303 28.2537 51.5015 28.0067 52.1171C28.5771 52.1171 29.0349 52.1171 29.563 52.1171C29.2941 51.4787 29.0591 50.9183 28.7673 50.2223Z" fill="black"/>
<path d="M89.7086 54.168C88.9335 54.168 88.1584 54.168 87.3833 54.168C87.3615 54.138 87.3409 54.108 87.3191 54.0792C87.5008 53.9724 87.6825 53.8644 87.8653 53.7576C87.6897 52.5816 87.6897 52.5816 86.2279 52.5864C85.4467 52.59 85.3813 52.6632 85.2239 53.7588C85.3886 53.8284 85.563 53.9028 85.7374 53.976C85.7386 54.0144 85.7398 54.054 85.7398 54.0924C85.1839 54.0924 84.6292 54.0924 83.9014 54.0924C84.8012 53.7408 84.8872 52.9848 85.1597 52.3596C85.5981 51.3528 85.9833 50.3244 86.4168 49.3152C86.4895 49.146 86.6881 48.9216 86.8323 48.9192C86.9788 48.9168 87.1907 49.1304 87.267 49.2972C87.7224 50.2968 88.1233 51.3192 88.5896 52.314C88.8863 52.9464 88.9311 53.7552 89.7995 54.0288C89.768 54.0756 89.7389 54.1212 89.7086 54.168ZM86.567 50.394C86.5174 50.3976 86.4677 50.4024 86.4168 50.406C86.1916 50.9652 85.9663 51.5256 85.7277 52.1172C86.2824 52.1172 86.7438 52.1172 87.2804 52.1172C87.02 51.4884 86.7935 50.9412 86.567 50.394Z" fill="black"/>
<path d="M101.074 50.2751C101.026 50.2451 100.948 50.2259 100.935 50.1851C100.679 49.4027 100.194 49.0776 99.4271 49.3356C99.1328 49.4352 98.8215 49.8035 98.7331 50.1095C98.6217 50.4971 98.876 50.8355 99.335 50.9207C99.6911 50.9867 100.045 51.0623 100.401 51.1223C100.997 51.2231 101.479 51.4464 101.606 52.1112C101.742 52.818 101.601 53.4359 100.989 53.8655C99.9745 54.5783 98.9123 54.4643 97.8018 53.9987C97.8454 53.5487 97.8877 53.1215 97.9301 52.6931C97.9786 52.6895 98.0258 52.6859 98.0743 52.6823C98.1179 52.7723 98.2039 52.8635 98.2002 52.9523C98.1796 53.5451 98.5999 53.7683 99.0577 53.8763C99.5772 53.9987 100.114 53.9819 100.492 53.5007C100.863 53.0255 100.679 52.3859 100.092 52.1879C99.6741 52.0475 99.2357 51.9659 98.807 51.8615C98.1712 51.7067 97.8732 51.2748 97.8114 50.6592C97.7473 50.0316 98.0609 49.4052 98.5938 49.1544C99.3811 48.7824 100.197 48.8088 101.008 49.074C101.358 49.1868 101.379 49.7099 101.074 50.2751Z" fill="black"/>
<path d="M48.327 49.0092C48.3064 49.4316 48.2894 49.7928 48.2676 50.2212C47.3738 49.3944 47.3738 49.3944 46.4449 49.464C46.4449 49.7988 46.4449 50.1456 46.4449 50.4936C46.4461 51.3324 46.457 52.17 46.4425 53.0088C46.434 53.4936 46.4449 53.9376 47.1655 53.9496C47.1377 54 47.1086 54.0504 47.0807 54.1008C46.262 54.1008 45.4433 54.1008 44.6246 54.1008C45.5099 53.9088 45.2968 53.2296 45.3016 52.668C45.3101 51.6144 45.304 50.5596 45.304 49.4556C44.7954 49.4556 44.3485 49.4556 43.9185 49.4556C43.8289 49.728 43.7562 49.9476 43.6848 50.1672C43.6267 50.1576 43.5685 50.148 43.5104 50.1384C43.4837 49.7772 43.4571 49.416 43.4268 49.0104C45.0582 49.0092 46.6544 49.0092 48.327 49.0092Z" fill="black"/>
<path d="M54.9495 49.0535C54.4857 49.7495 54.0448 50.4611 53.5531 51.1367C53.0154 51.8759 53.1353 52.7015 53.208 53.5043C53.2249 53.6951 53.5992 53.8535 53.8838 54.0887C53.0202 54.0887 52.2064 54.0887 51.3901 54.0887C51.3901 54.0347 51.3743 53.9711 51.3925 53.9591C51.5923 53.8259 51.9593 53.7167 51.9726 53.5715C52.0259 53.0039 52.1252 52.3619 51.9157 51.8687C51.5851 51.0899 51.0352 50.3987 50.5411 49.6955C50.4091 49.5071 50.1414 49.4123 49.9355 49.2755C50.5774 48.6863 51.3683 48.7499 51.8116 49.4567C52.1822 50.0471 52.5128 50.6639 52.8604 51.2687C53.7275 50.6747 53.644 49.2503 54.7945 48.9071C54.8478 48.9575 54.8987 49.0055 54.9495 49.0535Z" fill="black"/>
<path d="M79.9391 49.4472C79.1943 49.4112 78.4531 49.1412 78.2823 50.2464C78.2375 50.2116 78.1939 50.1756 78.1491 50.1408C78.1176 49.7808 78.0861 49.4208 78.0498 49.0128C79.6812 49.0128 81.2798 49.0128 82.8882 49.0128C82.8882 49.3944 82.8882 49.77 82.8882 50.2392C82.6205 49.9128 82.4704 49.5588 82.2184 49.4628C81.906 49.3428 81.5099 49.434 81.0957 49.434C81.0957 50.8152 81.0727 52.1496 81.1212 53.4828C81.1284 53.676 81.4772 53.856 81.7243 54.0972C80.8995 54.0972 80.0796 54.0972 79.2597 54.0972C79.9367 53.928 79.9549 53.4576 79.9452 52.9284C79.9258 51.7752 79.9391 50.622 79.9391 49.4472Z" fill="black"/>
<path d="M35.208 53.7444C35.7651 53.7132 36.229 53.628 36.6759 53.6772C37.3565 53.7528 37.038 52.8984 37.5975 52.7832C37.5636 53.2188 37.5709 53.5944 37.4849 53.9496C37.4558 54.0696 37.1918 54.2076 37.0319 54.2112C35.9274 54.234 34.8229 54.2232 33.596 54.2232C34.244 53.658 34.0369 52.9824 34.0659 52.3584C34.0962 51.7008 34.0865 51.0408 34.072 50.382C34.0611 49.8648 34.2331 49.242 33.2969 49.1724C33.3405 49.1244 33.3853 49.0764 33.4289 49.0296C34.2173 49.0296 35.0058 49.0296 35.8015 49.0296C35.8015 49.0752 35.8075 49.1472 35.8002 49.1484C35.0966 49.2696 35.2104 49.812 35.208 50.2848C35.2044 51.4008 35.208 52.5168 35.208 53.7444Z" fill="black"/>
<path d="M39.3952 48.9804C40.1764 48.9804 40.9563 48.9804 41.7375 48.9804C41.7557 49.0224 41.7726 49.0644 41.7908 49.1064C41.5982 49.1904 41.4069 49.2744 41.1368 49.3932C41.1368 50.7264 41.115 52.1028 41.161 53.4768C41.1671 53.67 41.5062 53.8524 41.7169 54.0672C40.9612 54.0672 40.1861 54.0672 39.4073 54.0672C39.4049 54.0216 39.3964 53.9508 39.4013 53.9508C40.0419 53.826 39.9935 53.3424 39.9911 52.8684C39.985 51.9888 39.9959 51.108 39.9959 50.2284C39.9959 49.7448 40.1122 49.1952 39.2959 49.1352C39.3286 49.0836 39.3613 49.032 39.3952 48.9804Z" fill="black"/>
<path d="M73.9053 53.9111C74.7615 53.8715 74.6198 53.3135 74.6235 52.8383C74.6307 52.0211 74.6356 51.2039 74.6307 50.3855C74.6283 49.8587 74.7967 49.2467 74.0191 48.9863C74.8039 48.9863 75.5899 48.9863 76.3747 48.9863C76.3917 49.0271 76.4098 49.0679 76.4268 49.1087C76.2367 49.1891 76.0453 49.2695 75.7643 49.3883C75.7643 50.7203 75.7425 52.0919 75.7886 53.4611C75.7958 53.6579 76.1337 53.8439 76.3372 54.0551C75.5996 54.0551 74.8209 54.0551 74.0421 54.0551C73.9973 54.0071 73.9513 53.9591 73.9053 53.9111Z" fill="black"/>
<path d="M79.5966 26.1792C79.7081 25.1292 79.7541 24.0672 79.9551 23.0352C80.0726 22.4268 80.3427 21.7992 80.706 21.2964C81.6362 20.0112 83.3208 19.9992 84.2146 21.3072C84.6494 21.9432 84.9401 22.746 85.0575 23.5092C85.3785 25.59 85.41 27.6912 84.9049 29.7564C84.7802 30.2664 84.5416 30.7872 84.2231 31.2036C83.1997 32.5416 81.5368 32.46 80.591 31.0632C79.8885 30.0252 79.7795 28.8252 79.6996 27.6264C79.6681 27.1488 79.6948 26.6676 79.6948 26.1888C79.6608 26.1852 79.6281 26.1828 79.5966 26.1792Z" fill="white"/>
<path d="M34.8291 20.9244C34.8291 21.378 34.8279 21.7932 34.8291 22.2084C34.8412 24.7068 34.8836 27.2052 34.8473 29.7024C34.8388 30.2964 34.685 30.9552 34.3895 31.4664C33.5369 32.9436 31.4816 32.976 30.6036 31.5144C30.2039 30.8484 29.9229 30.0456 29.8333 29.2764C29.6226 27.4608 29.7267 25.6476 30.3904 23.904C31.0916 22.0656 32.7993 20.8764 34.8291 20.9244Z" fill="white"/>
<path d="M17.4063 51.6407C17.313 52.0955 17.2682 52.5167 17.1374 52.9091C16.9364 53.5127 16.4931 53.8619 15.8367 53.9003C15.173 53.9387 14.6401 53.6879 14.3349 53.0975C13.8614 52.1807 13.8396 51.2099 14.1666 50.2487C14.4003 49.5599 14.955 49.2887 15.6732 49.2791C16.3732 49.2683 16.8371 49.6211 17.072 50.2211C17.2501 50.6759 17.3034 51.1799 17.4063 51.6407Z" fill="white"/>
<path d="M28.7676 50.2224C29.0595 50.9184 29.2945 51.4788 29.5621 52.1172C29.0341 52.1172 28.5763 52.1172 28.0059 52.1172C28.2541 51.5016 28.483 50.9316 28.7676 50.2224Z" fill="white"/>
<path d="M86.5668 50.3939C86.7933 50.9411 87.0198 51.4883 87.2802 52.1171C86.7437 52.1171 86.2822 52.1171 85.7275 52.1171C85.9661 51.5255 86.1914 50.9651 86.4167 50.4059C86.4663 50.4023 86.516 50.3975 86.5668 50.3939Z" fill="white"/>
<path d="M104.505 39.4104C105.122 39.3936 105.621 39.8688 105.633 40.4856C105.647 41.1444 105.168 41.6543 104.535 41.6555C103.935 41.6567 103.442 41.1636 103.426 40.548C103.412 39.948 103.907 39.426 104.505 39.4104ZM104.933 41.1359C104.978 41.1119 105.022 41.0892 105.067 41.0652C104.785 40.6752 104.504 40.2864 104.228 39.906C104.228 40.296 104.228 40.704 104.228 41.1131C104.255 41.1119 104.281 41.1096 104.307 41.1084C104.354 40.9356 104.401 40.7628 104.475 40.4928C104.67 40.7652 104.801 40.9512 104.933 41.1359Z" fill="white"/>
</g>
<defs>
<clipPath id="clip0_2_208">
<rect width="109" height="60" fill="white"/>
</clipPath>
</defs>
</svg>
